<?xml version="1.0" encoding="UTF-8" standalone="no"?>
<svg
   xmlns:dc="http://purl.org/dc/elements/1.1/"
   xmlns:cc="http://creativecommons.org/ns#"
   xmlns:rdf="http://www.w3.org/1999/02/22-rdf-syntax-ns#"
   xmlns:svg="http://www.w3.org/2000/svg"
   xmlns="http://www.w3.org/2000/svg"
   version="1.1"
   viewBox="0 0 999.88537 857.31699"
   height="857.31696"
   width="999.88538"
   data-name="Layer 1"
   id="eb138ea2-bd7e-4894-b46d-cd752eba296e">
  <metadata
     id="metadata69">
    <rdf:RDF>
      <cc:Work
         rdf:about="">
        <dc:format>image/svg+xml</dc:format>
        <dc:type
           rdf:resource="http://purl.org/dc/dcmitype/StillImage" />
        <dc:title></dc:title>
      </cc:Work>
    </rdf:RDF>
  </metadata>
  <defs
     id="defs67" />
  <path
     id="path888"
     d="m 699.66401,45.530816 c 0,0 -194.79648,-90.732698 -324.11514,-13.170874 C 246.2302,109.92176 293.7016,218.21562 218.40211,294.31401 143.10265,370.4124 51.433717,386.51014 15.420922,468.46224 -25.372997,561.29445 22.220432,660.56534 134.91792,705.538 247.61542,750.51064 567.07145,742.12375 717.67039,667.4888 868.26936,592.85383 976.30775,396.75416 927.19938,260.65512 878.09104,124.55607 699.66401,45.530816 699.66401,45.530816 Z"
     style="fill:#f2f2f2;fill-opacity:1;stroke:none;stroke-width:1.04294074px;stroke-linecap:butt;stroke-linejoin:miter;stroke-opacity:1" />
  <polygon
     transform="translate(113.99141,69.943288)"
     style="fill:#ffb8b8"
     id="polygon2"
     points="255.239,640.012 237.145,640.012 237.145,687.3 249.405,687.3 " />
  <path
     style="fill:#2f2e41"
     id="path4"
     d="m 348.0095,753.24026 h 24.1438 a 15.40422,15.40422 0 0 1 15.387,15.38672 v 0.5 h -39.5308 z" />
  <polygon
     transform="translate(113.99141,69.943288)"
     style="fill:#ffb8b8"
     id="polygon6"
     points="118.914,632.854 103.404,623.535 79.05,664.069 89.559,670.383 " />
  <path
     style="fill:#2f2e41"
     id="path8"
     d="m 184.24046,742.58841 8.18188,-13.61768 20.6958,12.43408 a 15.40476,15.40476 0 0 1 5.26465,21.11377 l -0.25757,0.42871 z" />
  <path
     style="fill:#2f2e41"
     id="path10"
     d="m 347.801,747.33352 c -2.47314,-2.51806 -8.6167,-43.875 -17.70678,-106.68164 -3.16114,-21.84131 -6.15284,-42.51269 -8.61768,-58.34326 -21.09351,46.37012 -55.19556,96.53076 -96.1748,141.43506 l -0.23609,0.25879 -0.32373,-0.1333 c -13.10962,-5.39844 -15.54956,-6.64942 -21.44433,-9.67188 -1.7605,-0.90283 -3.83106,-1.96435 -6.58887,-3.34326 l -0.15259,-0.11816 c -1.26611,-1.44629 10.28491,-20.61963 50.67212,-85.813 17.59351,-28.3999 35.78613,-57.76611 47.8352,-78.15332 l 0.11231,-0.18994 0.21606,-0.0449 c 29.12769,-6.07471 57.21314,1.05566 79.08277,20.07714 l 0.17749,0.15479 -0.006,0.23486 c -0.59009,23.90772 -0.0945,61.44824 0.343,94.57031 0.854,64.667 0.79809,83.55909 -1.21631,84.15772 l -0.10132,0.019 c -2.95239,0.24219 -5.40283,0.48438 -7.66187,0.70752 a 164.62926,164.62926 0 0 1 -17.84936,1.02735 l -0.21143,0.001 z" />
  <path
     style="fill:#2f2e41"
     id="path12"
     d="m 284.30043,366.47729 c -4.12706,-17.0404 -7.62358,-36.26017 0.15974,-51.95461 5.40044,-10.88957 25.37863,-14.5567 36.831,-10.63361 11.45237,3.92309 19.73248,14.5667 23.37408,26.17159 3.6416,11.60489 3.21841,24.11 1.63126,36.17411 -21.06247,-0.40461 -42.12494,-0.80922 -61.99608,0.24252 z" />
  <circle
     style="fill:#ffb8b8"
     id="circle14"
     r="24.561029"
     cy="341.91165"
     cx="319.84393" />
  <path
     style="fill:#2f2e41"
     id="path16"
     d="m 289.81833,336.85221 a 30.84951,30.84951 0 1 1 61.66193,0.81287 c -21.0224,0.0446 -42.04479,0.0893 -61.66193,-0.81287 z" />
  <path
     style="fill:#3f3d56"
     id="path18"
     d="m 386.322,577.15237 c -4.529,-15.45117 -6.78491,-26.26514 -9.39014,-38.75391 -3.57153,-17.12011 -7.61963,-36.52441 -18.77075,-74.30322 l -0.0276,-0.0933 0.009,-0.0962 c 3.15747,-32.76465 -10.6062,-67.5332 -35.91943,-90.73828 a 8.7642,8.7642 0 0 0 -11.96387,0.606 c -14.241,15.99219 -23.19092,30.97168 -27.3606,45.79541 l -0.0901,0.32129 c 5.94531,19.13037 12.59887,38.356 19.03613,56.95606 l 0.0923,0.26611 -0.18017,0.2168 c -24.1001,29.01709 -37.4292,67.80469 -36.62622,106.52051 a 214.65391,214.65391 0 0 1 71.77685,-12.01709 232.68628,232.68628 0 0 1 49.41431,5.31977 z" />
  <polygon
     transform="translate(113.99141,69.943288)"
     style="opacity:0.1"
     id="polygon20"
     points="243.941,440.463 186.941,382.463 223.217,461.44 " />
  <path
     style="fill:#002e50;fill-opacity:1"
     id="path22"
     d="m 498.62226,150.45003 c 0.345,-44.18146 -28.476,-80.224802 -64.37336,-80.505102 -35.89736,-0.2803 -65.27769,35.308572 -65.62268,79.490002 -0.31277,40.05573 23.34783,73.42112 54.52046,79.51237 l -2.15206,12.89936 23.82252,0.186 -1.95038,-12.93135 c 31.264,-5.60371 55.44272,-38.59555 55.7555,-78.65128 z" />
  <path
     style="fill:#ffffff;fill-opacity:0.37831325"
     id="path24"
     d="m 390.46158,170.6061 -8.99973,-0.0703 a 146.49361,146.49361 0 0 1 0.39823,-50.99845 l 8.99972,0.0703 q -6.04888,26.40374 -0.39822,50.99844 z" />
  <rect
     style="fill:#3f3d56"
     id="rect26"
     transform="rotate(0.44739)"
     height="6"
     width="27"
     y="225.55209"
     x="421.2818" />
  <path
     style="fill:#06d6a0;fill-opacity:1"
     id="path28"
     d="m 623.69804,174.84484 c 3.498,-44.04411 -22.67651,-82.052892 -58.46226,-84.895002 -35.78575,-2.84211 -67.63166,30.558632 -71.12967,74.602742 -3.17135,39.93119 18.04708,74.90045 48.70535,83.20145 l -3.06739,12.71282 23.74847,1.88612 -1.02227,-13.03763 c 31.5842,-3.35763 58.0564,-34.53931 61.22777,-74.4705 z" />
  <path
     style="fill:#ffffff;fill-opacity:0.37831325"
     id="path30"
     d="m 514.37445,187.22841 -8.97175,-0.71254 a 146.4936,146.4936 0 0 1 4.03774,-50.83991 l 8.97175,0.71254 q -7.91829,25.90458 -4.03774,50.83991 z" />
  <rect
     style="fill:#3f3d56"
     id="rect32"
     transform="rotate(4.54094)"
     height="6"
     width="27"
     y="203.91696"
     x="557.08301" />
  <rect
     style="fill:#3f3d56"
     id="rect34"
     transform="rotate(-58.50618)"
     height="3.0002"
     width="376.13849"
     y="600.87799"
     x="-300.84073" />
  <path
     style="fill:#ef476f;fill-opacity:1"
     id="path36"
     d="m 739.88318,265.79135 c 27.65551,-34.45711 27.37909,-80.60575 -0.61724,-103.0758 -27.99633,-22.47005 -73.11115,-12.75271 -100.76666,21.7044 -25.07295,31.23947 -27.18631,72.08805 -6.49939,96.18968 l -9.68417,8.78874 18.57917,14.91179 6.48469,-11.35669 c 28.00743,14.98075 67.4306,4.07734 92.5036,-27.16212 z" />
  <path
     style="fill:#ffffff;fill-opacity:0.37831325"
     id="path38"
     d="m 640.54657,214.19712 -7.01888,-5.63341 a 146.4937,146.4937 0 0 1 31.92266,-39.77365 l 7.01888,5.63341 q -21.1125,16.97079 -31.92266,39.77365 z" />
  <rect
     style="fill:#3f3d56"
     id="rect40"
     transform="rotate(38.75076)"
     height="6"
     width="27"
     y="-175.89261"
     x="663.1203" />
  <rect
     style="fill:#3f3d56"
     id="rect42"
     transform="rotate(-43.27915)"
     height="3.0000999"
     width="376.13797"
     y="646.38953"
     x="-111.1368" />
  <rect
     style="fill:#3f3d56;stroke-width:0.99999672"
     id="rect44"
     transform="rotate(-79.929456)"
     height="2.9997902"
     width="376.13718"
     y="468.47681"
     x="-528.28796" />
  <path
     style="fill:#ffb8b8"
     id="path46"
     d="m 381.80858,536.35446 a 10.05577,10.05577 0 0 1 -9.055,-12.48052 l -29.89062,-19.58385 17.04692,-7.36451 25.77121,19.72622 a 10.11027,10.11027 0 0 1 -3.87251,19.70266 z" />
  <path
     style="fill:#3f3d56"
     id="path48"
     d="m 352.74461,521.89846 c -17.875,-20.564 -36.35865,-41.82812 -53.18579,-63.206 l -0.10791,-0.14355 7.3e-4,-0.17432 c 0.0769,-17.457 0.156,-35.5044 2.22387,-55.69531 a 15.98269,15.98269 0 0 1 -4.23657,-13.08741 17.72123,17.72123 0 0 1 7.78174,-13.23388 c 8.42236,-5.32032 21.04175,-2.43994 27.00659,6.1665 5.759,8.30811 4.91748,20.21 0.5232,26.20459 l -4.865,38.15234 -0.43018,-0.0332 0.0952,0.0483 0.0337,-0.0278 0.063,0.0767 0.14869,0.0757 c -0.008,0.0161 -0.0181,0.0386 -0.0303,0.0693 15.78443,19.27148 32.10327,39.19287 48.40454,58.26514 l 0.36133,0.42285 -0.45874,0.31445 c -7.63745,5.23633 -15.53491,10.65088 -22.64868,15.88672 l -0.377,0.2666 z" />
  <path
     style="fill:#3f3d56"
     id="path50"
     d="m 495.99141,770.40677 h -381 a 1,1 0 0 1 0,-2 h 381 a 1,1 0 0 1 0,2 z" />
  <polygon
     transform="translate(113.99141,69.943288)"
     style="fill:#f2f2f2"
     id="polygon52"
     points="" />
  <path
     style="fill:#ffd166;fill-opacity:1"
     id="path54"
     d="m 987.32571,604.67155 -0.6051,1.90672 -37.67848,-11.95547 c 3.34052,4.41256 14.533,18.1937 26.16243,21.23118 13.89316,3.62856 21.048,-1.44333 23.14159,-9.45878 2.09355,-8.01545 -1.66672,-15.9385 -15.56012,-19.56747 -11.77683,-3.07615 -28.553,3.67819 -33.39278,5.808 z" />
  <polygon
     transform="translate(113.99141,69.943288)"
     style="fill:#f2f2f2"
     id="polygon56"
     points="350.832,578.73 350.832,578.731 350.832,578.73 " />
  <path
     style="fill:#ffd166;fill-opacity:1"
     id="path58"
     d="m 540.60889,845.29914 -1.99788,0.10107 -1.99886,-39.47918 c -2.963,4.67443 -11.951,19.98482 -10.72281,31.94147 1.46742,14.284 8.72405,19.20922 16.965,18.36271 8.24095,-0.84651 14.34511,-7.14366 12.878,-21.428 -1.24358,-12.10826 -13.446,-25.456 -17.136,-29.24323 z" />
  <polygon
     transform="translate(113.99141,69.943288)"
     style="fill:#f2f2f2"
     id="polygon60"
     points="" />
  <path
     style="fill:#ffd166;fill-opacity:1"
     id="path62"
     d="m 202.40051,149.84841 1.19183,-1.60663 31.74905,23.54992 c -1.72543,-5.25857 -7.83252,-21.92876 -17.84388,-28.58027 -11.96018,-7.94608 -20.37486,-5.47432 -24.95933,1.42589 -4.58447,6.90021 -3.60277,15.61518 8.3575,23.56174 10.1382,6.736 28.19878,5.7994 33.468,5.35779 z" />
  <g
     id="text878"
     style="font-style:normal;font-variant:normal;font-weight:normal;font-stretch:normal;font-size:100.69367981px;line-height:1.25;font-family:Roboto;-inkscape-font-specification:Roboto;text-align:center;letter-spacing:0px;word-spacing:0px;text-anchor:middle;fill:#ffffff;fill-opacity:1;stroke:none;stroke-width:1.88800657"
     aria-label="5">
    <path
       id="path925"
       style="fill:#ffffff;fill-opacity:1;stroke-width:1.88800657"
       d="m 414.23732,147.1175 3.63834,-35.69512 h 36.67846 v 8.40753 h -28.95926 l -2.16334,19.51923 q 5.26085,-3.09751 11.94754,-3.09751 9.7842,0 15.53672,6.49002 5.75252,6.44086 5.75252,17.45423 0,11.06254 -5.99836,17.45423 -5.94918,6.34252 -16.66755,6.34252 -9.4892,0 -15.48756,-5.26085 -5.99835,-5.26085 -6.83419,-14.55339 h 8.6042 q 0.83583,6.14586 4.37585,9.29254 3.54001,3.09751 9.3417,3.09751 6.34252,0 9.9317,-4.32668 3.63834,-4.32669 3.63834,-11.94755 0,-7.17835 -3.93334,-11.50504 -3.88418,-4.37584 -10.37421,-4.37584 -5.94918,0 -9.3417,2.60584 l -2.40917,1.96667 z" />
  </g>
  <g
     id="text882"
     style="font-style:normal;font-variant:normal;font-weight:normal;font-stretch:normal;font-size:100.69367981px;line-height:1.25;font-family:Roboto;-inkscape-font-specification:Roboto;text-align:center;letter-spacing:0px;word-spacing:0px;text-anchor:middle;fill:#ffffff;fill-opacity:1;stroke:none;stroke-width:1.88800657"
     transform="rotate(3.5251432)"
     aria-label="0">
    <path
       id="path922"
       style="fill:#ffffff;fill-opacity:1;stroke-width:1.88800657"
       d="m 594.64335,136.44008 q 0,15.97922 -5.45752,23.74758 -5.45752,7.76836 -17.06089,7.76836 -11.45587,0 -16.96256,-7.57169 -5.50669,-7.62086 -5.70335,-22.71508 v -12.14421 q 0,-15.78255 5.45752,-23.45258 5.45752,-7.670023 17.11006,-7.670023 11.5542,0 17.01172,7.424193 5.45752,7.37502 5.60502,22.81341 z m -9.09586,-12.43921 q 0,-11.5542 -3.24502,-16.81506 -3.24501,-5.31001 -10.27586,-5.31001 -6.9817,0 -10.17754,5.26085 -3.19584,5.26085 -3.29418,16.17589 v 14.55338 q 0,11.60337 3.34335,17.15923 3.39251,5.50668 10.2267,5.50668 6.73586,0 9.98087,-5.21168 3.29417,-5.21169 3.44168,-16.42173 z" />
  </g>
  <g
     id="text886"
     style="font-style:normal;font-variant:normal;font-weight:normal;font-stretch:normal;font-size:100.69367981px;line-height:1.25;font-family:Roboto;-inkscape-font-specification:Roboto;text-align:center;letter-spacing:0px;word-spacing:0px;text-anchor:middle;fill:#ffffff;fill-opacity:1;stroke:none;stroke-width:1.88800657"
     transform="rotate(39.265955)"
     aria-label="2">
    <path
       id="path919"
       style="fill:#ffffff;fill-opacity:1;stroke-width:1.88800657"
       d="m 703.94783,-232.18523 h -46.90517 v -6.53919 l 24.78009,-27.53342 q 5.50668,-6.24419 7.57169,-10.12837 2.11418,-3.93335 2.11418,-8.11253 0,-5.60502 -3.39252,-9.1942 -3.39251,-3.58918 -9.04669,-3.58918 -6.78503,0 -10.57087,3.88418 -3.73668,3.83502 -3.73668,10.71837 h -9.09587 q 0,-9.88253 6.34252,-15.97922 6.39169,-6.09669 17.0609,-6.09669 9.98086,0 15.78255,5.26086 5.80169,5.21168 5.80169,13.91421 0,10.57087 -13.47172,25.17342 l -19.17506,20.79757 h 35.94096 z" />
  </g>
  <g
     id="text892"
     style="font-style:normal;font-variant:normal;font-weight:normal;font-stretch:normal;font-size:53.33333206px;line-height:1.25;font-family:Roboto;-inkscape-font-specification:Roboto;text-align:center;letter-spacing:0px;word-spacing:0px;text-anchor:middle;fill:#002e50;fill-opacity:1;stroke:none;stroke-width:1.88800657"
     aria-label="Bad gateway">
    <path
       id="path898"
       style="font-style:normal;font-variant:normal;font-weight:normal;font-stretch:normal;font-size:53.33333206px;font-family:Roboto;-inkscape-font-specification:Roboto;fill:#002e50;fill-opacity:1;stroke-width:1.88800657"
       d="m 491.62057,533.79395 v -37.91667 h 12.39583 q 6.17188,0 9.27083,2.55208 3.125,2.55209 3.125,7.55209 0,2.65625 -1.51041,4.71354 -1.51042,2.03125 -4.11459,3.15104 3.07292,0.85937 4.84375,3.28125 1.79688,2.39583 1.79688,5.72917 0,5.10416 -3.30729,8.02083 -3.30729,2.91667 -9.34896,2.91667 z m 5,-17.73438 v 13.64583 h 8.25521 q 3.48958,0 5.49479,-1.79687 2.03125,-1.82292 2.03125,-5 0,-6.84896 -7.44792,-6.84896 z m 0,-4.01042 h 7.55208 q 3.28125,0 5.23438,-1.64062 1.97916,-1.64063 1.97916,-4.45313 0,-3.125 -1.82291,-4.53125 -1.82292,-1.43229 -5.54688,-1.43229 h -7.39583 z" />
    <path
       id="path900"
       style="font-style:normal;font-variant:normal;font-weight:normal;font-stretch:normal;font-size:53.33333206px;font-family:Roboto;-inkscape-font-specification:Roboto;fill:#002e50;fill-opacity:1;stroke-width:1.88800657"
       d="m 541.49036,533.79395 q -0.41667,-0.83334 -0.67709,-2.96875 -3.35937,3.48958 -8.02083,3.48958 -4.16667,0 -6.84896,-2.34375 -2.65625,-2.36979 -2.65625,-5.98958 0,-4.40105 3.33334,-6.82292 3.35937,-2.44792 9.42708,-2.44792 h 4.6875 v -2.21354 q 0,-2.52604 -1.51042,-4.01042 -1.51041,-1.51041 -4.45312,-1.51041 -2.57813,0 -4.32292,1.30208 -1.74479,1.30208 -1.74479,3.15104 h -4.84375 q 0,-2.10937 1.48437,-4.0625 1.51042,-1.97916 4.0625,-3.125 2.57813,-1.14583 5.65105,-1.14583 4.86979,0 7.6302,2.44792 2.76042,2.42187 2.86459,6.6927 v 12.96875 q 0,3.88021 0.98958,6.17188 v 0.41667 z m -7.99479,-3.67188 q 2.26562,0 4.29687,-1.17187 2.03125,-1.17188 2.94271,-3.04688 v -5.78125 h -3.77604 q -8.85417,0 -8.85417,5.18229 0,2.26563 1.51042,3.54167 1.51041,1.27604 3.88021,1.27604 z" />
    <path
       id="path902"
       style="font-style:normal;font-variant:normal;font-weight:normal;font-stretch:normal;font-size:53.33333206px;font-family:Roboto;-inkscape-font-specification:Roboto;fill:#002e50;fill-opacity:1;stroke-width:1.88800657"
       d="m 551.98515,519.47103 q 0,-6.48438 3.07292,-10.41667 3.07291,-3.95833 8.04687,-3.95833 4.94792,0 7.83854,3.38542 v -14.6875 h 4.81771 v 40 h -4.42708 l -0.23438,-3.02084 q -2.89062,3.54167 -8.04687,3.54167 -4.89584,0 -7.99479,-4.01042 -3.07292,-4.01041 -3.07292,-10.46875 z m 4.81771,0.54687 q 0,4.79167 1.97916,7.5 1.97917,2.70834 5.46875,2.70834 4.58334,0 6.69271,-4.11459 v -12.9427 q -2.16146,-3.98438 -6.64062,-3.98438 -3.54167,0 -5.52084,2.73438 -1.97916,2.73437 -1.97916,8.09895 z" />
    <path
       id="path904"
       style="font-style:normal;font-variant:normal;font-weight:normal;font-stretch:normal;font-size:53.33333206px;font-family:Roboto;-inkscape-font-specification:Roboto;fill:#002e50;fill-opacity:1;stroke-width:1.88800657"
       d="m 595.34453,519.47103 q 0,-6.58854 3.04687,-10.46875 3.04688,-3.90625 8.07292,-3.90625 5.15625,0 8.04687,3.64583 l 0.23438,-3.125 h 4.40104 v 27.5 q 0,5.46875 -3.25521,8.61979 -3.22917,3.15105 -8.69792,3.15105 -3.04687,0 -5.96354,-1.30209 -2.91666,-1.30208 -4.45312,-3.56771 l 2.5,-2.89062 q 3.09896,3.82812 7.57812,3.82812 3.51563,0 5.46875,-1.97916 1.97917,-1.97917 1.97917,-5.57292 v -2.42187 q -2.89063,3.33333 -7.89063,3.33333 -4.94791,0 -8.02083,-3.98438 -3.04687,-3.98437 -3.04687,-10.85937 z m 4.84375,0.54687 q 0,4.76563 1.95312,7.5 1.95313,2.70834 5.46875,2.70834 4.55729,0 6.69271,-4.14063 v -12.86458 q -2.21354,-4.03646 -6.64063,-4.03646 -3.51562,0 -5.49479,2.73438 -1.97916,2.73437 -1.97916,8.09895 z" />
    <path
       id="path906"
       style="font-style:normal;font-variant:normal;font-weight:normal;font-stretch:normal;font-size:53.33333206px;font-family:Roboto;-inkscape-font-specification:Roboto;fill:#002e50;fill-opacity:1;stroke-width:1.88800657"
       d="m 643.78202,533.79395 q -0.41667,-0.83334 -0.67708,-2.96875 -3.35938,3.48958 -8.02084,3.48958 -4.16666,0 -6.84895,-2.34375 -2.65625,-2.36979 -2.65625,-5.98958 0,-4.40105 3.33333,-6.82292 3.35937,-2.44792 9.42708,-2.44792 h 4.6875 v -2.21354 q 0,-2.52604 -1.51041,-4.01042 -1.51042,-1.51041 -4.45313,-1.51041 -2.57812,0 -4.32292,1.30208 -1.74479,1.30208 -1.74479,3.15104 h -4.84375 q 0,-2.10937 1.48438,-4.0625 1.51041,-1.97916 4.0625,-3.125 2.57812,-1.14583 5.65104,-1.14583 4.86979,0 7.63021,2.44792 2.76041,2.42187 2.86458,6.6927 v 12.96875 q 0,3.88021 0.98958,6.17188 v 0.41667 z m -7.99479,-3.67188 q 2.26562,0 4.29687,-1.17187 2.03125,-1.17188 2.94271,-3.04688 v -5.78125 h -3.77604 q -8.85417,0 -8.85417,5.18229 0,2.26563 1.51042,3.54167 1.51042,1.27604 3.88021,1.27604 z" />
    <path
       id="path908"
       style="font-style:normal;font-variant:normal;font-weight:normal;font-stretch:normal;font-size:53.33333206px;font-family:Roboto;-inkscape-font-specification:Roboto;fill:#002e50;fill-opacity:1;stroke-width:1.88800657"
       d="m 661.98515,498.79395 v 6.82291 h 5.26041 v 3.72396 h -5.26041 v 17.47396 q 0,1.69271 0.70312,2.55208 0.70313,0.83334 2.39583,0.83334 0.83334,0 2.29167,-0.3125 v 3.90625 q -1.90104,0.52083 -3.69792,0.52083 -3.22916,0 -4.86979,-1.95313 -1.64062,-1.95312 -1.64062,-5.54687 v -17.47396 h -5.13021 v -3.72396 h 5.13021 v -6.82291 z" />
    <path
       id="path910"
       style="font-style:normal;font-variant:normal;font-weight:normal;font-stretch:normal;font-size:53.33333206px;font-family:Roboto;-inkscape-font-specification:Roboto;fill:#002e50;fill-opacity:1;stroke-width:1.88800657"
       d="m 684.53722,534.31478 q -5.72916,0 -9.32291,-3.75 -3.59375,-3.77604 -3.59375,-10.07813 v -0.88541 q 0,-4.19271 1.58854,-7.47396 1.61458,-3.30729 4.47917,-5.15625 2.89062,-1.875 6.25,-1.875 5.49479,0 8.54166,3.61979 3.04688,3.61979 3.04688,10.36458 v 2.00521 h -19.08854 q 0.10416,4.16667 2.42187,6.74479 2.34375,2.55209 5.9375,2.55209 2.55208,0 4.32292,-1.04167 1.77083,-1.04167 3.09896,-2.76042 l 2.9427,2.29167 q -3.54166,5.44271 -10.625,5.44271 z m -0.59895,-25.26042 q -2.91667,0 -4.89584,2.13542 -1.97916,2.10937 -2.44791,5.9375 h 14.11458 v -0.36458 q -0.20833,-3.67188 -1.97917,-5.67709 -1.77083,-2.03125 -4.79166,-2.03125 z" />
    <path
       id="path912"
       style="font-style:normal;font-variant:normal;font-weight:normal;font-stretch:normal;font-size:53.33333206px;font-family:Roboto;-inkscape-font-specification:Roboto;fill:#002e50;fill-opacity:1;stroke-width:1.88800657"
       d="m 726.0216,527.15332 5.41667,-21.53646 h 4.81771 l -8.20313,28.17709 h -3.90625 l -6.84895,-21.35417 -6.66667,21.35417 h -3.90625 l -8.17708,-28.17709 h 4.79166 l 5.54688,21.09375 6.5625,-21.09375 h 3.88021 z" />
    <path
       id="path914"
       style="font-style:normal;font-variant:normal;font-weight:normal;font-stretch:normal;font-size:53.33333206px;font-family:Roboto;-inkscape-font-specification:Roboto;fill:#002e50;fill-opacity:1;stroke-width:1.88800657"
       d="m 758.57368,533.79395 q -0.41667,-0.83334 -0.67709,-2.96875 -3.35937,3.48958 -8.02083,3.48958 -4.16667,0 -6.84896,-2.34375 -2.65625,-2.36979 -2.65625,-5.98958 0,-4.40105 3.33334,-6.82292 3.35937,-2.44792 9.42708,-2.44792 h 4.6875 v -2.21354 q 0,-2.52604 -1.51042,-4.01042 -1.51041,-1.51041 -4.45312,-1.51041 -2.57813,0 -4.32292,1.30208 -1.74479,1.30208 -1.74479,3.15104 h -4.84375 q 0,-2.10937 1.48437,-4.0625 1.51042,-1.97916 4.0625,-3.125 2.57813,-1.14583 5.65105,-1.14583 4.86979,0 7.6302,2.44792 2.76042,2.42187 2.86459,6.6927 v 12.96875 q 0,3.88021 0.98958,6.17188 v 0.41667 z m -7.99479,-3.67188 q 2.26562,0 4.29687,-1.17187 2.03125,-1.17188 2.94271,-3.04688 v -5.78125 h -3.77604 q -8.85417,0 -8.85417,5.18229 0,2.26563 1.51042,3.54167 1.51041,1.27604 3.88021,1.27604 z" />
    <path
       id="path916"
       style="font-style:normal;font-variant:normal;font-weight:normal;font-stretch:normal;font-size:53.33333206px;font-family:Roboto;-inkscape-font-specification:Roboto;fill:#002e50;fill-opacity:1;stroke-width:1.88800657"
       d="m 779.04242,526.73665 6.5625,-21.11979 h 5.15625 l -11.32812,32.52604 q -2.63021,7.03125 -8.35938,7.03125 l -0.91146,-0.0781 -1.79687,-0.33854 v -3.90625 l 1.30208,0.10416 q 2.44792,0 3.80209,-0.98958 1.3802,-0.98958 2.26562,-3.61979 l 1.06771,-2.86458 -10.05208,-27.86459 h 5.26041 z" />
  </g>
</svg>
