<?xml version="1.0" standalone="no"?>
<!DOCTYPE svg PUBLIC "-//W3C//DTD SVG 20010904//EN"
 "http://www.w3.org/TR/2001/REC-SVG-20010904/DTD/svg10.dtd">
<svg version="1.0" xmlns="http://www.w3.org/2000/svg"
 width="700.000000pt" height="700.000000pt" viewBox="0 0 700.000000 700.000000"
 preserveAspectRatio="xMidYMid meet">
<metadata>
Created by potrace 1.11, written by Peter Selinger 2001-2013
</metadata>
<g transform="translate(0.000000,700.000000) scale(0.100000,-0.100000)"
fill="#000000" stroke="none">
<path d="M26 5990 c-6 -9 1 -3625 6 -3645 3 -11 9 -42 12 -70 27 -190 113
-427 214 -590 216 -347 639 -609 1071 -663 74 -9 318 -9 406 0 312 34 651 201
885 439 50 50 160 184 160 194 0 4 9 19 20 34 93 131 190 429 216 661 4 36 8
551 9 1145 3 1204 -2 1121 74 1280 76 160 146 191 427 188 124 -1 220 -21 274
-57 45 -30 94 -112 134 -223 l31 -88 2 -480 c2 -264 4 -770 6 -1125 2 -355 6
-654 9 -665 3 -11 9 -42 12 -68 32 -217 142 -490 260 -648 294 -389 752 -612
1239 -603 110 2 201 10 262 24 22 5 51 11 65 13 52 10 182 48 225 67 234 102
370 192 526 350 84 85 229 279 229 306 0 5 10 27 21 49 32 59 75 181 103 292
42 167 51 251 48 448 -1 77 -3 883 -4 1790 l-3 1650 -515 0 -515 0 1 -1570 c1
-863 3 -1669 5 -1790 3 -207 2 -224 -20 -295 -27 -86 -74 -185 -105 -218 -25
-28 -78 -57 -121 -66 -16 -3 -41 -9 -55 -12 -50 -11 -267 -10 -331 2 -135 25
-169 53 -234 189 -78 163 -74 103 -75 1270 -1 1110 -1 1120 -26 1270 -9 56
-55 220 -81 290 -126 337 -379 610 -718 774 -92 45 -199 87 -242 95 -10 2 -45
11 -78 19 -77 20 -98 24 -192 33 -474 46 -922 -108 -1242 -427 -189 -189 -276
-343 -371 -654 -14 -45 -28 -114 -36 -170 -3 -27 -9 -59 -11 -70 -3 -11 -7
-517 -8 -1125 -3 -1074 -4 -1107 -23 -1181 -25 -94 -82 -209 -122 -247 -50
-48 -117 -64 -285 -68 -177 -4 -263 10 -332 52 -41 25 -54 43 -95 124 -90 177
-82 -4 -83 1997 0 1174 -3 1773 -10 1774 -31 5 -1017 4 -1019 -1z"/>
</g>
</svg>
