<?xml version="1.0" encoding="UTF-8"?>
<svg id="Layer_1" data-name="Layer 1" xmlns="http://www.w3.org/2000/svg" viewBox="0 0 510 510">
  <defs>
    <style>
      .cls-1, .cls-2, .cls-3, .cls-4, .cls-5 {
        stroke-width: 0px;
      }

      .cls-1, .cls-2, .cls-5 {
        fill-rule: evenodd;
      }

      .cls-1, .cls-4 {
        fill: #1f567d;
      }

      .cls-2 {
        fill: #7ca7c6;
      }

      .cls-3 {
        fill: #000;
      }

      .cls-5 {
        fill: #fff;
      }

      .cls-6 {
        isolation: isolate;
      }
    </style>
  </defs>
  <g id="g10">
    <path id="path24" class="cls-1" d="M255.15,0l-5.93.1-5.93.2-5.93.41-5.93.51-5.72.61-5.72.82-5.72,1.02-5.82,1.12-5.52,1.23-5.62,1.33-5.52,1.43-5.52,1.63-5.41,1.84-5.31,1.84-5.31,1.94-5.21,2.25-5.11,2.15-5.21,2.45-5.01,2.45-4.9,2.66-4.9,2.76-4.9,2.86-4.6,2.96-4.7,3.06-4.7,3.17-4.39,3.27-4.39,3.37-4.39,3.58-4.19,3.47-4.19,3.68-4.09,3.88-3.98,3.88-3.88,3.88-3.68,4.09-3.88,4.19-3.47,4.29-3.47,4.29-3.47,4.39-3.27,4.5-3.17,4.7-3.06,4.7-2.96,4.6-2.86,4.8-2.66,4.9-2.76,5.01-2.45,5.11-2.45,5.01-2.15,5.21-2.15,5.11-2.04,5.31-1.84,5.31-1.84,5.41-1.63,5.52-1.43,5.52-1.33,5.52-1.23,5.72-1.12,5.72-1.02,5.62-.72,5.82-.72,5.82-.51,5.93-.41,5.93-.2,5.82v12.06l.2,5.82.41,5.93.51,5.93.72,5.82.72,5.82,1.02,5.72,1.12,5.62,1.23,5.72,1.33,5.41,1.43,5.62,1.63,5.41,1.84,5.41,1.84,5.41,2.04,5.31,2.15,5.21,2.15,5.21,2.45,5.01,2.45,5.01,2.76,5.01,2.66,4.9,2.86,4.8,2.96,4.8,3.06,4.7,3.17,4.5,3.27,4.6,3.47,4.39,3.47,4.29,3.47,4.29,3.88,4.09,3.68,4.09,3.88,3.98,3.98,3.88,4.09,3.78,4.19,3.68,4.19,3.58,4.39,3.47,4.29,3.47,43.52-57.93-.1-.2-6.03-4.6-5.72-5.01-5.52-5.31-5.31-5.52-5.01-5.93-4.8-5.93-4.39-6.33-4.19-6.33-3.78-6.74-1.84-3.37-1.74-3.47-1.63-3.47-1.53-3.58-1.53-3.68-1.33-3.58-1.33-3.68-1.23-3.78-1.12-3.68-1.02-3.78-.92-3.88-.92-3.88-.72-3.88-.61-3.88-.61-3.98-.31-3.98-.41-4.09-.2-4.09-.31-3.98v-8.38l.31-3.98.2-4.09.41-4.09.31-3.88.61-4.09.61-3.88.72-3.98.92-3.78.92-3.88,1.02-3.78,1.12-3.68,1.23-3.88,1.33-3.68,1.33-3.47,1.53-3.68,1.53-3.58,1.63-3.47,1.74-3.37,1.84-3.47,3.78-6.74,4.19-6.44,4.39-6.13,4.8-6.03,5.01-5.72,5.31-5.72,5.52-5.21,5.72-4.9,6.03-4.8,6.23-4.39,6.54-4.19,6.54-3.78,3.47-1.84,3.47-1.74,3.47-1.63,3.58-1.53,3.58-1.53,3.68-1.33,3.68-1.33,3.68-1.23,3.78-1.12,3.78-.92,3.88-1.02,3.78-.92,3.98-.72,3.78-.61,4.09-.61,3.88-.31,4.09-.41,4.09-.2,4.09-.31h8.28l3.98.31,4.09.2,4.09.41,3.98.31,3.98.61,3.88.61,3.88.72,3.98.92,3.78,1.02,3.78.92,3.78,1.12,3.68,1.23,3.68,1.33,3.68,1.33,3.58,1.53,3.58,1.53,3.58,1.63,3.37,1.74,3.47,1.84,6.64,3.78,6.54,4.19,6.23,4.39,5.93,4.8,5.82,4.9,5.52,5.21,5.31,5.72,5.01,5.72,4.6,6.03,4.6,6.13,3.98,6.44,3.98,6.74,1.74,3.47,1.63,3.37,1.74,3.47,1.53,3.58,1.43,3.68,1.53,3.47,1.12,3.68,1.23,3.88,1.12,3.68,1.12,3.78.82,3.88.92,3.78.72,3.98.72,3.88.51,4.09.51,3.88.31,4.09.31,4.09.1,3.98.1,4.19-.1,4.19-.1,3.98-.31,4.09-.31,4.09-.51,3.98-.51,3.98-.72,3.88-.72,3.88-.92,3.88-.82,3.88-1.12,3.78-1.12,3.68-1.23,3.78-1.12,3.68-1.53,3.58-1.43,3.68-1.53,3.58-1.74,3.47-1.63,3.47-1.74,3.37-3.98,6.74-3.98,6.33-4.6,6.33-4.6,5.93-5.01,5.93-5.31,5.52-5.52,5.31-5.82,5.01-5.93,4.6-.1.1,43.42,58.03,4.39-3.47,4.29-3.47,4.29-3.58,4.09-3.68,4.09-3.78,4.09-3.88,3.78-3.98,3.78-4.09,3.68-4.09,3.68-4.29,3.47-4.29,3.47-4.39,3.17-4.6,3.17-4.5,3.06-4.7,2.96-4.8,2.86-4.8,2.76-4.9,2.55-5.01,2.55-5.01,2.35-5.01,2.35-5.21,2.04-5.21,2.04-5.31,1.94-5.41,1.74-5.41,1.53-5.41,1.63-5.62,1.33-5.41,1.23-5.72,1.12-5.62.82-5.72.92-5.82.51-5.82.61-5.93.41-5.93.1-5.82.1-6.03-.1-6.03-.1-5.82-.41-5.93-.61-5.93-.51-5.82-.92-5.82-.82-5.62-1.12-5.72-1.23-5.72-1.33-5.52-1.63-5.52-1.53-5.52-1.74-5.41-1.94-5.31-2.04-5.31-2.04-5.11-2.35-5.21-2.35-5.01-2.55-5.11-2.55-5.01-2.76-4.9-2.86-4.8-2.96-4.6-3.06-4.7-3.17-4.7-3.17-4.5-3.47-4.39-3.47-4.29-3.68-4.29-3.68-4.19-3.78-4.09-3.78-3.88-4.09-3.88-4.09-3.88-4.09-3.68-4.29-3.47-4.29-3.58-4.39-3.37-4.6-3.27-4.5-3.17-4.7-3.06-4.8-2.96-4.8-2.86-4.9-2.76-4.9-2.66-5.01-2.45-5.11-2.45-5.21-2.15-5.21-2.25-5.31-1.94-5.41-1.84-5.41-1.84-5.31-1.63-5.52-1.43-5.72-1.33-5.62-1.23-5.62-1.12-5.72-1.02-5.82-.82-5.82-.61-5.82-.51-5.93-.41-5.93-.2-6.03-.1Z"/>
    <path id="path26" class="cls-2" d="M207.44,155.82l-.41.29-3.37,2.66-3.37,2.86-3.06,2.96-2.86,3.17-2.86,3.27-2.55,3.37-2.45,3.58-2.25,3.78-2.04,3.78-1.84,3.88-1.63,3.99-1.43,4.09-1.23,4.19-.92,4.19-.82,4.29-.61,4.29-.31,4.29-.1,4.39.1,4.29.1,1.02c1.01-.07,2.03-.1,3.04-.11,27.89,0,50.51,22.66,50.51,50.61,0,6.93-1.44,13.79-4.19,20.14l2.85,1.28,3.98,1.43,4.19,1.23,4.19,1.02,4.19.82,4.19.51,4.29.31,4.29.1v.1l4.29-.1,4.19-.41,4.29-.51,4.19-.82,4.19-1.02,4.09-1.23,3.99-1.43,1.3-.54c-2.99-6.56-4.55-13.67-4.57-20.88,0-27.95,22.61-50.61,50.51-50.61,1.66,0,3.32.08,4.98.25l.08-1.16.1-4.29-.1-4.39-.31-4.29-.61-4.29-.72-4.29-1.02-4.19-1.23-4.19-1.43-4.09-1.63-3.99-1.84-3.88-2.04-3.78-2.25-3.78-2.35-3.58-2.66-3.37-2.76-3.27-2.96-3.17-3.06-2.96-3.27-2.86-3.06-2.42c-6.85,20.68-26.15,34.64-47.89,34.66-21.94-.03-41.35-14.24-48.04-35.18Z"/>
    <path id="path28" class="cls-5" d="M261.89,227.62l18.7-35.35-44.64,35.35h13.28l-18.7,35.45,44.64-35.45h-13.28Z"/>
    <ellipse id="ellipse5092" class="cls-4" cx="176.53" cy="278.9" rx="42.39" ry="42.41"/>
    <path id="path44" class="cls-5" d="M192.32,250.4l-3.78,4.09c.1.1,5.21,4.8,5.31,11.03.1,3.98-1.74,7.76-5.41,11.44-4.8,4.8-7.05,10.01-6.95,15.43.2,8.79,6.84,14.81,7.05,15.02l3.78-4.19c-.1,0-5.11-4.7-5.31-11.03-.1-3.78,1.74-7.66,5.41-11.34,4.8-4.8,7.15-10.01,7.05-15.53-.31-8.68-6.84-14.71-7.15-14.92h0Z"/>
    <path id="path46" class="cls-5" d="M185.47,265.31c-.2-8.68-6.84-14.71-7.05-14.92l-3.78,4.09c.1.1,5.11,4.8,5.31,11.03.1,3.88-1.74,7.76-5.41,11.44-4.8,4.7-7.15,9.91-6.95,15.43.2,8.79,6.84,14.81,7.05,15.02l3.78-4.19c-.1,0-5.11-4.7-5.31-11.03-.1-3.78,1.74-7.66,5.41-11.34,4.8-4.8,7.05-10.01,6.95-15.53Z"/>
    <path id="path48" class="cls-5" d="M171.58,265.31c-.2-8.68-6.84-14.71-7.15-14.92l-3.68,4.09c0,.1,5.11,4.7,5.31,11.03,0,3.88-1.74,7.76-5.52,11.44-4.8,4.8-7.15,10.01-6.95,15.43.2,8.79,6.84,14.81,7.15,15.12l3.68-4.29s-5.11-4.7-5.31-11.03c-.1-3.88,1.74-7.66,5.41-11.34,4.8-4.8,7.25-10.01,7.05-15.53h0Z"/>
    <ellipse id="ellipse5090" class="cls-4" cx="331.51" cy="279.16" rx="42.39" ry="42.41"/>
    <path id="path64" class="cls-5" d="M331.16,247.74s-37.29,53.02,0,62.83c38-9.81,0-62.83,0-62.83ZM331.16,301.89c-15.02-3.88,0-25.44,0-25.44,0,0,15.43,21.56,0,25.44Z"/>
    <ellipse id="ellipse4240" class="cls-4" cx="255.56" cy="140.27" rx="42.39" ry="42.41"/>
    <path id="path80" class="cls-5" d="M283.55,133.42c0-1.84-1.53-3.47-3.47-3.47h-3.68l-2.96-8.07c-.41-1.23-1.74-2.55-2.96-2.96,0,0-4.09-1.53-14.92-1.53s-15.02,1.53-15.02,1.53c-1.12.41-2.45,1.74-2.96,2.96l-2.96,8.07h-3.58c-1.94,0-3.47,1.63-3.47,3.47s1.53,3.37,3.47,3.37h1.02l-.82,2.55c-.41,1.12-.82,3.17-.82,4.39v14.81c0,2.55,2.04,4.6,4.6,4.6s4.6-2.04,4.6-4.6v-2.25h31.98v2.25c0,2.55,1.94,4.6,4.5,4.6s4.6-2.04,4.6-4.6v-14.81c0-1.23-.41-3.27-.82-4.39l-.82-2.55h1.02c1.94,0,3.47-1.53,3.47-3.37h0ZM242.48,123.21h26.15l3.47,10.22h-33.1l3.47-10.22ZM238.39,147.11c-1.84,0-3.37-1.53-3.37-3.37,0-1.94,1.53-3.47,3.37-3.47,1.94,0,3.47,1.53,3.47,3.47,0,1.84-1.53,3.37-3.47,3.37ZM272.62,147.11c-1.84,0-3.37-1.53-3.37-3.37,0-1.94,1.53-3.47,3.37-3.47,1.94,0,3.47,1.53,3.47,3.47,0,1.84-1.53,3.37-3.47,3.37Z"/>
    <g id="g82">
      <g id="text86" class="cls-6">
        <g class="cls-6">
          <path class="cls-3" d="M208.39,490.79c-5.96,0-10.79-1.78-14.47-5.33-3.69-3.56-5.53-8.18-5.53-13.88v-1c0-3.97.74-7.48,2.21-10.52,1.47-3.04,3.62-5.39,6.45-7.06,2.83-1.66,6.18-2.5,10.06-2.5,5.46,0,9.77,1.69,12.93,5.08s4.74,8.11,4.74,14.17v4.71h-24.06c.43,2.18,1.38,3.89,2.84,5.14,1.46,1.25,3.35,1.87,5.67,1.87,3.83,0,6.82-1.34,8.98-4.02l5.53,6.54c-1.51,2.08-3.65,3.74-6.41,4.97-2.77,1.23-5.74,1.85-8.92,1.85ZM207.02,459.83c-3.54,0-5.65,2.35-6.32,7.04h12.21v-.93c.05-1.94-.44-3.44-1.47-4.51-1.03-1.07-2.5-1.6-4.42-1.6Z"/>
        </g>
        <g class="cls-6">
          <path class="cls-3" d="M273.04,483.6c-1.94,2.16-4.78,3.89-8.51,5.21s-7.83,1.98-12.28,1.98c-6.85,0-12.32-2.1-16.41-6.29-4.09-4.19-6.29-10.02-6.57-17.49l-.04-4.53c0-5.15.91-9.64,2.73-13.49,1.82-3.84,4.42-6.8,7.81-8.87,3.39-2.07,7.31-3.11,11.76-3.11,6.51,0,11.57,1.49,15.17,4.47,3.6,2.98,5.7,7.43,6.3,13.34h-12.14c-.43-2.92-1.36-5-2.8-6.25-1.44-1.24-3.47-1.87-6.11-1.87-3.16,0-5.6,1.34-7.33,4.02s-2.6,6.51-2.62,11.49v3.16c0,5.22.89,9.14,2.68,11.76,1.78,2.62,4.59,3.93,8.42,3.93,3.28,0,5.72-.73,7.33-2.19v-8.12h-8.76v-8.66h21.37v21.48Z"/>
        </g>
        <g class="cls-6">
          <path class="cls-3" d="M278.24,470.28c0-3.88.75-7.33,2.26-10.36,1.51-3.03,3.68-5.36,6.5-6.99,2.83-1.63,6.14-2.44,9.95-2.44,5.82,0,10.4,1.8,13.76,5.41,3.35,3.6,5.03,8.51,5.03,14.71v.43c0,6.06-1.68,10.86-5.05,14.42s-7.92,5.33-13.67,5.33-9.97-1.66-13.32-4.97c-3.35-3.32-5.16-7.81-5.42-13.49l-.04-2.05ZM290.34,471.03c0,3.59.56,6.23,1.69,7.9,1.12,1.68,2.79,2.51,4.99,2.51,4.31,0,6.51-3.32,6.61-9.95v-1.22c0-6.97-2.23-10.45-6.68-10.45-4.05,0-6.24,3-6.57,9.01l-.04,2.19Z"/>
        </g>
      </g>
    </g>
    <g id="g88">
      <g id="text92" class="cls-6">
        <g class="cls-6">
          <path class="cls-3" d="M326.2,445.44l.23,2.65c1.56-2.04,3.7-3.07,6.44-3.07,2.35,0,4.1.7,5.26,2.11,1.16,1.4,1.76,3.52,1.8,6.34v14.53h-7.05v-14.24c0-1.14-.23-1.98-.69-2.51-.46-.54-1.29-.8-2.5-.8-1.38,0-2.4.54-3.07,1.63v15.93h-7.03v-22.56h6.59Z"/>
        </g>
      </g>
    </g>
  </g>
</svg>