<?xml version="1.0" encoding="UTF-8"?>
<svg id="Layer_1" data-name="Layer 1" xmlns="http://www.w3.org/2000/svg" viewBox="0 0 510 510">
  <defs>
    <style>
      .cls-1, .cls-2, .cls-3, .cls-4 {
        stroke-width: 0px;
      }

      .cls-1, .cls-3 {
        fill: #008753;
      }

      .cls-2, .cls-4 {
        fill: #f2cd5d;
      }

      .cls-3, .cls-4 {
        fill-rule: evenodd;
      }
    </style>
  </defs>
  <g id="layer1">
    <path id="path1375" class="cls-3" d="M55.58,429.15c-1.01.7-2.53,1.55-4.56,2.57-1.96,1.01-4.34,1.9-7.13,2.66-2.72.7-5.76,1.01-9.12.95-5.38-.06-10.23-1.01-14.54-2.85-4.31-1.9-7.95-4.43-10.93-7.6-2.98-3.23-5.29-6.9-6.94-11.02C.79,409.67,0,405.24,0,400.55c0-5.26.82-10.07,2.47-14.44,1.65-4.37,3.99-8.14,7.03-11.31,3.04-3.23,6.65-5.73,10.83-7.51,4.18-1.77,8.74-2.66,13.68-2.66,4.37,0,8.27.6,11.69,1.8,3.48,1.14,6.4,2.44,8.74,3.9l-4.37,10.36c-1.77-1.2-3.99-2.41-6.65-3.61-2.66-1.2-5.67-1.8-9.03-1.8-3.04,0-5.95.63-8.74,1.9-2.79,1.2-5.23,2.95-7.32,5.23-2.09,2.22-3.77,4.81-5.04,7.79-1.2,2.98-1.81,6.21-1.81,9.69s.54,6.94,1.62,9.98c1.14,3.04,2.72,5.67,4.75,7.89,2.09,2.15,4.56,3.86,7.41,5.13,2.91,1.2,6.18,1.81,9.79,1.81s6.65-.54,9.31-1.62c2.72-1.14,4.91-2.41,6.56-3.8l4.66,9.88Z"/>
    <path id="path1377" class="cls-3" d="M91.43,365.4c5.26,0,9.75.89,13.49,2.66,3.74,1.77,6.59,4.31,8.55,7.6,2.03,3.29,3.04,7.28,3.04,11.97,0,2.72-.44,5.45-1.33,8.17-.82,2.72-2.15,5.19-3.99,7.41-1.77,2.22-4.18,3.99-7.22,5.32-2.98,1.33-6.65,2-11.02,2h-9.98v24.04h-11.12v-69.17h19.57ZM92.95,399.89c2.41,0,4.43-.41,6.08-1.24,1.65-.82,2.91-1.87,3.8-3.14.95-1.27,1.62-2.6,2-3.99.44-1.39.67-2.63.67-3.71s-.19-2.28-.57-3.61c-.38-1.39-1.01-2.69-1.9-3.9-.89-1.27-2.12-2.28-3.71-3.04-1.58-.82-3.61-1.23-6.08-1.23h-10.26v23.85h9.98Z"/>
    <path id="path1380" class="cls-3" d="M133.81,365.49v68.88h4.56l-.09-56.93,51.97,58.55h.19v-69.08h-4.47l.09,57.6-51.97-59.03h-.28Z"/>
    <path id="path1382" class="cls-3" d="M213.46,366.92h4.66v67.46h-4.66v-67.46Z"/>
    <path id="path1384" class="cls-3" d="M292.06,429.63c-1.14.76-2.53,1.49-4.18,2.19-1.58.63-3.29,1.2-5.13,1.71-1.84.51-3.74.89-5.7,1.14-1.9.32-3.71.47-5.42.47-5.32,0-10.13-.86-14.44-2.57-4.24-1.77-7.89-4.18-10.93-7.22-3.04-3.1-5.38-6.68-7.03-10.74-1.58-4.12-2.38-8.55-2.38-13.3,0-5.13.89-9.85,2.66-14.16,1.84-4.31,4.34-8.01,7.51-11.12,3.17-3.17,6.84-5.61,11.02-7.32,4.18-1.71,8.61-2.57,13.3-2.57,3.55,0,6.87.44,9.98,1.33,3.17.89,6.02,2.09,8.55,3.61l-1.71,4.18c-1.46-.89-3.1-1.65-4.94-2.28-1.84-.7-3.74-1.24-5.7-1.62-1.9-.38-3.8-.57-5.7-.57-4.31,0-8.3.76-11.97,2.28-3.67,1.52-6.87,3.64-9.6,6.37-2.72,2.72-4.85,5.92-6.37,9.6s-2.28,7.66-2.28,11.97.7,8.08,2.09,11.69c1.46,3.55,3.48,6.68,6.08,9.41,2.66,2.66,5.83,4.75,9.5,6.27,3.67,1.46,7.76,2.19,12.26,2.19,2.66,0,5.45-.32,8.36-.95,2.91-.63,5.42-1.55,7.51-2.76v-18.72h-15.2v-4.47h19.86v25.94Z"/>
    <path id="path1386" class="cls-3" d="M311.53,366.92h41.61v4.47h-36.96v26.79h33.25v4.47h-33.25v27.27h38.29v4.47h-42.94v-67.46Z"/>
    <path id="path1388" class="cls-3" d="M372.24,366.92v67.46h4.66v-28.31h10.45c1.82,0,3.52-.12,5.08-.36l17.63,28.67h5.42l-18.26-29.94c.06-.03.14-.05.21-.08,2.72-1.14,4.94-2.67,6.65-4.57,1.71-1.9,2.94-4.02,3.7-6.36.76-2.41,1.15-4.88,1.15-7.41,0-3.36-.64-6.24-1.91-8.65-1.27-2.41-2.94-4.37-5.03-5.89-2.03-1.58-4.31-2.72-6.84-3.41-2.47-.76-4.97-1.15-7.5-1.15h-15.39ZM376.9,371.39h11.4c2.41,0,4.59.41,6.56,1.23,1.96.76,3.64,1.84,5.03,3.23,1.39,1.33,2.44,2.88,3.13,4.66.76,1.77,1.15,3.67,1.15,5.7,0,1.71-.29,3.48-.86,5.32-.51,1.77-1.39,3.42-2.66,4.94-1.27,1.52-3.01,2.75-5.22,3.7-2.22.95-5,1.43-8.36,1.43h-10.17v-30.21Z"/>
    <path id="path1390" class="cls-3" d="M432.38,366.92h4.66v67.46h-4.66v-67.46Z"/>
    <path id="path1392" class="cls-3" d="M481.12,363.98l-28.5,70.4h4.66l8.94-22.33h29.78l8.79,22.33h5.22l-28.5-70.4h-.38ZM481.23,374.55l13.05,33.14h-26.32l13.27-33.14Z"/>
    <circle id="circle4787" class="cls-2" cx="255" cy="79.86" r="21.86"/>
    <circle id="circle4793" class="cls-1" cx="188.44" cy="108.59" r="21.86" transform="translate(-21.59 165.05) rotate(-45)"/>
    <circle id="circle4795" class="cls-1" cx="321.56" cy="108.59" r="21.86"/>
    <path id="path4797" class="cls-3" d="M157.97,343.39s43.67-50.61,98.16-50.61,95.89,50.61,95.89,50.61c0,0-47.69-37.28-97.03-37.28-51.92,0-97.03,37.28-97.03,37.28Z"/>
    <g id="g4941">
      <path id="path4783" class="cls-3" d="M189.84,146.37s-55.93,43.38-55.93,71.46,35.02,11.48,45.47,25.52c10.45,14.04-23.27,57.42-14.26,62.52,9.01,5.1,64.98-72.73,59.73-84.22-5.25-11.48-52.74-7.2-59.73-12.76-5.21-4.15-.33-13.67,3.16-21.2,6.33-13.66,21.55-41.33,21.55-41.33h0Z"/>
      <path id="path3663" class="cls-4" d="M246.37,117.5s-55.93,43.38-55.93,71.46,35.02,11.48,45.47,25.52c10.45,14.04-23.27,57.42-14.26,62.52,9.01,5.1,64.98-72.73,59.73-84.22-5.25-11.48-52.74-7.2-59.73-12.76-5.21-4.15-.33-13.67,3.16-21.2,6.33-13.66,21.55-41.33,21.55-41.33h0Z"/>
      <path id="path3665" class="cls-3" d="M263.63,117.5s55.93,43.38,55.93,71.46-35.02,11.48-45.47,25.52c-10.45,14.04,23.27,57.42,14.26,62.52-9.01,5.1-64.98-72.73-59.73-84.22,5.25-11.48,52.74-7.2,59.73-12.76,5.21-4.15.33-13.67-3.16-21.2-6.33-13.66-21.55-41.33-21.55-41.33h0Z"/>
      <path id="path3667" class="cls-3" d="M320.16,146.37s55.93,43.38,55.93,71.46-35.02,11.48-45.47,25.52c-10.45,14.04,23.27,57.42,14.26,62.52-9.01,5.1-64.98-72.73-59.73-84.22,5.25-11.48,52.74-7.2,59.73-12.76,5.21-4.15.33-13.67-3.16-21.2-6.33-13.66-21.55-41.33-21.55-41.33h0Z"/>
    </g>
  </g>
</svg>