<?xml version="1.0" encoding="utf-8"?>
<!-- Generator: Adobe Illustrator 28.3.0, SVG Export Plug-In . SVG Version: 6.00 Build 0)  -->
<svg version="1.1"
	 id="svg2" xmlns:rdf="http://www.w3.org/1999/02/22-rdf-syntax-ns#" xmlns:cc="http://creativecommons.org/ns#" xmlns:dc="http://purl.org/dc/elements/1.1/" xmlns:inkscape="http://www.inkscape.org/namespaces/inkscape" xmlns:svg="http://www.w3.org/2000/svg" xmlns:sodipodi="http://sodipodi.sourceforge.net/DTD/sodipodi-0.dtd"
	 xmlns="http://www.w3.org/2000/svg" xmlns:xlink="http://www.w3.org/1999/xlink" x="0px" y="0px" viewBox="0 0 1770 1790"
	 style="enable-background:new 0 0 1770 1790;" xml:space="preserve">
<style type="text/css">
	.st0{clip-path:url(#SVGID_00000030472062169680096310000018356882387624564414_);}
	.st1{fill:#335873;}
	.st2{fill:#FFFFFF;}
	.st3{fill:none;stroke:#DFE5EA;stroke-width:5.112;stroke-miterlimit:13.3333;}
	.st4{fill-rule:evenodd;clip-rule:evenodd;fill:#15304E;}
	.st5{fill:#15304E;}
	.st6{fill:#2375A6;}
	.st7{clip-path:url(#SVGID_00000118370570756167462490000001979288628665838743_);}
	.st8{fill:url(#path148_00000160889957678031787900000006936073672593308034_);}
	.st9{enable-background:new    ;}
	.st10{clip-path:url(#SVGID_00000103266767484411243960000017546220698446631569_);}
	.st11{fill-rule:evenodd;clip-rule:evenodd;fill:#7BBF81;}
	.st12{fill-rule:evenodd;clip-rule:evenodd;fill:#91C88C;}
</style>
<sodipodi:namedview  bordercolor="#666666" borderopacity="1" gridtolerance="10" guidetolerance="10" id="namedview4" inkscape:current-layer="layer1" inkscape:cx="825.67039" inkscape:cy="907.02806" inkscape:guide-bbox="true" inkscape:pagecheckerboard="0" inkscape:pageopacity="1" inkscape:pageshadow="2" inkscape:window-height="1031" inkscape:window-maximized="1" inkscape:window-width="1920" inkscape:window-x="0" inkscape:window-y="0" inkscape:zoom="0.45478196" objecttolerance="10" pagecolor="#ffffff" showgrid="true" showguides="true">
	<sodipodi:guide  id="guide981" inkscape:locked="false" orientation="0,1" position="-1807.4596,1948.1864"></sodipodi:guide>
	<inkscape:grid  id="grid985" type="xygrid"></inkscape:grid>
	<sodipodi:guide  id="guide987" inkscape:locked="false" orientation="1,0" position="140,2140"></sodipodi:guide>
</sodipodi:namedview>
<g id="layer1" inkscape:groupmode="layer" inkscape:label="bg">
</g>
<g id="g10" transform="matrix(1.3333333,0,0,-1.3333333,0,1790)" inkscape:groupmode="layer" inkscape:label="2022-11-28_EmPowerPlan-logo">
	<g id="g12" transform="translate(-251.59929,-196.08547)" inkscape:export-xdpi="18.339914" inkscape:export-ydpi="18.339914">
		<g>
			<defs>
				<rect id="SVGID_1_" x="-300.9" y="-259.5" width="2407.6" height="2075.7"/>
			</defs>
			<clipPath id="SVGID_00000016068964542891674710000017415338884876591527_">
				<use xlink:href="#SVGID_1_"  style="overflow:visible;"/>
			</clipPath>
			<g id="g14" style="clip-path:url(#SVGID_00000016068964542891674710000017415338884876591527_);">
				<g id="g20" transform="translate(801.2803,604.8726)">
					<path id="path22" inkscape:connector-curvature="0" class="st1" d="M0,0c-25.3,4.3-13.4,9.5-13.4,9.5h-3.4
						c0,0-21.9,191-21.9,211.5c0,20.5,7.4,52.7,9.9,71.5c2.5,18.8-9.9,79.6-9.9,79.6s19.5,6.6,22.2,9.9c2.7,3.3,0.8,10.5,4.3,11.1
						s5.6,0,5.6,0s-0.4,8-0.6,10.9c-11.5,5.3-17.2,46.5-12.3,56.9c4.9,10.5,23.8,16,38,11.5c14.2-4.5,12.1-25.5,12.5-33.7
						c0.4-8.2-4.7-31.4-13.7-35.5c-3.9-1.8,1.4-12,1.4-12s2.2,0.1,5.2-2.1s-0.1-4.4,3.7-5.6c3.8-1.2,14-1.2,17.3-4.6
						c3.2-3.5,2.8-59.4,2.8-72.9c0-17.9-7.6-51.8-6.8-63.5c0.8-11.7,13.5-88,21-132.6c0,0,17.1-89.6,17.3-95
						c0.2-5.3-6.2-4.9-6.2-4.9S99.5-4.5,99.5-8.4s-12.3-6-17.9-4.9S66-5.5,62.5-4.1C59-2.6,49.7-1.8,48.9,2.1
						C48.1,6,52,14.4,52,14.4S35.9,70,35.1,76.8c-0.8,6.8,0.9,22.5-0.4,29.5c-1.2,7-21.6,55.3-23.4,56.1
						c-1.9,0.8-0.8-150.3-0.8-150.3l-6-0.2c0,0,6.2-14.2,5.6-16.7C9.4-7.2,13.9-2.3,0,0"/>
				</g>
				<g id="g24" transform="translate(785.2784,1018.8249)">
					<path id="path26" inkscape:connector-curvature="0" class="st1" d="M0,0h-7.6l2.4,32.3h51.6L49.5,0h-5.2"/>
				</g>
				<g id="g28" transform="translate(792.8374,835.7792)">
					<path id="path30" inkscape:connector-curvature="0" class="st1" d="M0,0l-8.9,3.4c0,0-8.4,26.8-16.3,37.3
						c-7.9,10.5-16.6,14.6-14.5,17.9c2.1,3.2,33,51.2,33,51.2l-14.1,34.8l-9.3-3.4c0,0-42.2-74.9-35.5-89.4s23.9-37.2,32.8-45
						c8.9-7.8,19-16.7,19-16.7L-9.3-21L0,0z"/>
				</g>
				<g id="g32" transform="translate(816.1526,842.255)">
					<path id="path34" inkscape:connector-curvature="0" class="st1" d="M0,0l8.9,3.4c0,0,8.4,26.8,16.3,37.3
						c7.9,10.5,16.6,14.6,14.5,17.9c-2.1,3.2-33,51.2-33,51.2l14.1,34.8l9.3-3.4c0,0,42.2-74.9,35.5-89.4
						c-6.8-14.5-23.9-37.2-32.8-45c-8.9-7.8-19-16.7-19-16.7L9.3-21L0,0z"/>
				</g>
				<g id="g36" transform="translate(908.8894,592.0392)">
					<path id="path38" inkscape:connector-curvature="0" class="st1" d="M0,0c14-0.9,11.1,22.8,11.1,22.8h3.4
						c0,0,21.9,191,21.9,211.5s-7.4,52.7-9.9,71.5c-2.5,18.8,9.9,79.6,9.9,79.6s-19.5,6.6-22.2,9.9c-2.7,3.3-0.8,10.5-4.3,11.1
						c-3.5,0.6-5.6,0-5.6,0s0,4.7,0.2,7.6c4.7,2.2,13.5,12,16.9,18.4c5,9.3,3.7,25.8,0.8,32c-4.9,10.5-30.2,17.5-44.4,13
						c-14.2-4.5-10.7-17.1-11.1-25.3c-0.4-8.2,0.6-39.9,3.3-43.2c2.7-3.3,9-4.3,9-4.3s-13.1-4.3-18.5-9.3
						c-3.8-3.5-8.1-30.7-15.9-56.1c-0.1-8.1,5.4-14.7,5.4-19.8c0-17.9,7.6-51.8,6.8-63.5s-13.5-88-21-132.6c0,0-12.8-90-13-95.4
						c-0.2-5.3,1.9-4.5,1.9-4.5s-23.2-12.6-26.5-14.6c3,1.8,12.8-3.5,18.3-2.4c10.6,2,11.6-0.1,18.7,2.8c3.5,1.4,12.7,2.3,13.6,6.2
						c0.8,3.9-3.1,12.3-3.1,12.3s11.5,52.6,12.3,59.4c0.8,6.8,3.7,25.5,4.9,32.5c1.2,7,27.1,66.6,29,67.4
						c1.9,0.8-4.8-161.6-4.8-161.6l6-0.2c0,0-6.2-14.2-5.6-16.7C-11.7,6.2-14,0.9,0,0"/>
				</g>
				<g id="g40" transform="translate(915.0568,836.2681)">
					<path id="path42" inkscape:connector-curvature="0" class="st1" d="M0,0l8.9,3.4c0,0,8.4,26.8,16.3,37.3
						c7.9,10.5,16.6,14.6,14.5,17.9c-2.1,3.2-33,51.2-33,51.2l14.1,34.8l9.3-3.4c0,0,42.2-74.9,35.5-89.4
						c-6.8-14.5-23.9-37.2-32.8-45c-8.9-7.8-19-16.7-19-16.7L9.3-21L0,0z"/>
				</g>
				<g id="g44" transform="translate(848.6201,857.2967)">
					<path id="path46" inkscape:connector-curvature="0" class="st1" d="M0,0c2.8-8.1,19.9,3.8,27.6,5.6s-6.8,81.1-6.8,81.1v43.3
						l-34.5-85.7"/>
				</g>
				<g id="g48" transform="translate(656.9408,697.5208)">
					<path id="path50" inkscape:connector-curvature="0" class="st1" d="M0,0c-6,53.3-18.9,169.2-18.9,184.9
						c0,20.5,7.4,52.7,9.9,71.5c2.5,18.8-9.9,79.6-9.9,79.6s19.5,6.6,22.2,9.9c2.7,3.3,0.8,10.5,4.3,11.1s5.6,0,5.6,0
						s-0.4,14.4-0.6,17.3c-11.5,5.3-22.2,30.2-17.3,40.7c4.9,10.5,30.2,17.5,44.4,13s10.7-17.1,11.1-25.3c0.4-8.2-0.6-39.9-3.3-43.2
						c-2.7-3.3-9-4.3-9-4.3s13.1-4.3,18.5-9.3c5.4-4.9,10.5-58,10.5-75.9c0-17.9-7.6-51.8-6.8-63.5c0.8-11.7,13.5-88,21-132.6
						c0,0,17.1-89.6,17.3-95c0.2-5.3-6.2-4.9-6.2-4.9s7.3-13.5,11.1-20.7c3.8-7.3-1.7-7.3-7.3-6.2C91-52,71-35.3,70.2-31.4
						c-0.8,3.9,1.6,9.6,1.6,9.6S55.7,33.9,54.9,40.7c-0.8,6.8,0.9,22.5-0.4,29.5c-1.2,7-21.6,55.3-23.4,56.1
						c-1.6,0.7-1-113-0.8-143.1C30.3-21.4,3.6-0.3,0,0"/>
				</g>
				<g id="g52" transform="translate(668.2919,892.2743)">
					<path id="path54" inkscape:connector-curvature="0" class="st1" d="M0,0l-8.9,3.4c0,0-8.4,26.8-16.3,37.3
						c-7.9,10.5-16.6,14.6-14.5,17.9c2.1,3.2,33,51.2,33,51.2l-14.1,34.8l-9.3-3.4c0,0-42.2-74.9-35.5-89.4s23.9-37.2,32.8-45
						c8.9-7.8,19-16.7,19-16.7L-9.3-21L0,0z"/>
				</g>
				<g id="g56" transform="translate(703.7354,1039.0679)">
					<path id="path58" inkscape:connector-curvature="0" class="st1" d="M0,0c0,0,23.2,11.5,27.1,14.5c3.9,3,42,59.9,42,59.9
						s2.8,9,4.3,12.4c1.5,3.4,8.4,10.8,12.7,8.6c4.4-2.1,6.6-2.5,9.6-6.9c3-4.4-2-14.3-5.7-16.6c-3.7-2.4-10.4-6.7-10.4-6.7
						S54.8,2.9,45.9-5.8c-8.9-8.7-47.3-35-47.3-35"/>
				</g>
				<g id="g60" transform="translate(801.4574,1148.4187)">
					<path id="path62" inkscape:connector-curvature="0" class="st1" d="M0,0c-4.4,3.1-18.1-15.7-18.1-15.7l4.7-4
						C-13.4-19.7,3-2.2,0,0"/>
				</g>
				<g id="g64" transform="translate(951.6476,830.5356)">
					<path id="path66" inkscape:connector-curvature="0" class="st2" d="M0,0l-150.2-31.2L-300.4,0v144.7l146.8-31.2L0,144.7V0z"/>
				</g>
				<g id="g68" transform="translate(951.6476,830.5356)">
					<path id="path70" inkscape:connector-curvature="0" class="st3" d="M0,0l-150.2-31.2L-300.4,0v144.7l146.8-31.2L0,144.7V0z"/>
				</g>
				<g id="g72" transform="translate(801.4615,811.5966)">
					<path id="path74" inkscape:connector-curvature="0" class="st3" d="M0,0v118.1"/>
				</g>
				<g id="g76" transform="translate(663.7625,898.9251)">
					<path id="path78" inkscape:connector-curvature="0" class="st3" d="M0,0l137.7-31.6L273.5-7.7"/>
				</g>
				<g id="g80" transform="translate(635.4505,899.0584)">
					<path id="path82" inkscape:connector-curvature="0" class="st1" d="M0,0c8.9-7.8,19-16.7,19-16.7s-0.1-7.1,4.6-11.1
						c4.7-4,15.2-6.4,18.8,0.7c3.6,7.1-6.8,18.6-9.6,20.3c-2.8,1.6-8.9,3.4-8.9,3.4S15.5,23.4,7.6,33.9"/>
				</g>
				<g id="g84" transform="translate(954.2899,849.5771)">
					<path id="path86" inkscape:connector-curvature="0" class="st1" d="M0,0c-8.9-7.8-25.4-23.2-25.4-23.2s0.1-7.1-4.6-11.1
						c-4.7-4-15.2-6.4-18.8,0.7c-3.6,7.1,6.8,18.6,9.6,20.3c2.8,1.6,8.9,3.4,8.9,3.4s22.1,41.3,30,51.8"/>
				</g>
				<g id="g88" transform="translate(924.1256,1058.7119)">
					<path id="path90" inkscape:connector-curvature="0" class="st1" d="M0,0c0-6.7,4.7-12.1,10.4-12.1c5.7,0,10.4,5.4,10.4,12.1
						s-4.7,12.1-10.4,12.1C4.7,12.1,0,6.7,0,0"/>
				</g>
				<g id="g92" transform="translate(912.5323,1462.2295)">
					<path id="path94" inkscape:connector-curvature="0" class="st4" d="M0,0l-14.2-0.2l-14.2-0.5l-14.2-1l-14.2-1.2l-13.7-1.5
						l-13.7-2l-13.7-2.5l-14-2.7l-13.3-2.9l-13.5-3.2l-13.3-3.4l-13.3-3.9l-13-4.4l-12.8-4.4l-12.8-4.7l-12.5-5.4l-12.3-5.2
						l-12.5-5.9l-12-5.9l-11.8-6.4l-11.8-6.6l-11.8-6.9l-11-7.1l-11.3-7.4l-11.3-7.6l-10.6-7.9l-10.6-8.1l-10.6-8.6l-10.1-8.3
						l-10.1-8.8l-9.8-9.3l-9.6-9.3l-9.3-9.3l-8.8-9.8l-9.3-10.1l-8.3-10.3l-8.3-10.3l-8.3-10.6l-7.9-10.8l-7.6-11.3l-7.4-11.3
						l-7.1-11l-6.9-11.5l-6.4-11.8l-6.6-12l-5.9-12.3l-5.9-12l-5.2-12.5l-5.2-12.3l-4.9-12.8l-4.4-12.8l-4.4-13l-3.9-13.3l-3.4-13.3
						l-3.2-13.3l-2.9-13.7l-2.7-13.7l-2.5-13.5l-1.7-14l-1.7-14l-1.2-14.2l-1-14.2l-0.5-14v-14.5v-14.5l0.5-14l1-14.2l1.2-14.2
						l1.7-14l1.7-14l2.5-13.7l2.7-13.5l2.9-13.7l3.2-13l3.4-13.5l3.9-13l4.4-13l4.4-13l4.9-12.8l5.2-12.5l5.2-12.5l5.9-12l5.9-12
						l6.6-12l6.4-11.8l6.9-11.5l7.1-11.5l7.4-11.3l7.6-10.8l7.9-11l8.3-10.6l8.3-10.3l8.3-10.3l9.3-9.8l8.8-9.8l9.3-9.6l9.6-9.3
						l9.8-9.1l10.1-8.8l10.1-8.6l10.6-8.3l10.3-8.3l104.6,139.2l-0.2,0.5l-14.5,11l-13.7,12l-13.3,12.8l-12.8,13.3l-12,14.2
						l-11.5,14.2l-10.6,15.2l-10.1,15.2l-9.1,16.2l-4.4,8.1l-4.2,8.3l-3.9,8.3l-3.7,8.6l-3.7,8.8l-3.2,8.6l-3.2,8.8l-2.9,9.1
						l-2.7,8.8l-2.5,9.1l-2.2,9.3l-2.2,9.3l-1.7,9.3l-1.5,9.3l-1.5,9.6l-0.7,9.6l-1,9.8l-0.5,9.8l-0.7,9.6v10.1v10.1l0.7,9.6
						l0.5,9.8l1,9.8l0.7,9.3l1.5,9.8l1.5,9.3l1.7,9.6l2.2,9.1l2.2,9.3l2.5,9.1l2.7,8.8l2.9,9.3l3.2,8.8l3.2,8.3l3.7,8.8l3.7,8.6
						l3.9,8.3l4.2,8.1l4.4,8.3l9.1,16.2l10.1,15.5l10.6,14.7l11.5,14.5l12,13.7l12.8,13.7l13.3,12.5l13.7,11.8l14.5,11.5l15,10.6
						l15.7,10.1l15.7,9.1l8.3,4.4l8.3,4.2l8.3,3.9l8.6,3.7l8.6,3.7l8.8,3.2l8.8,3.2l8.8,2.9l9.1,2.7l9.1,2.2l9.3,2.5l9.1,2.2
						l9.6,1.7l9.1,1.5l9.8,1.5l9.3,0.7l9.8,1l9.8,0.5l9.8,0.7H0h10.1l9.6-0.7l9.8-0.5l9.8-1l9.6-0.7l9.6-1.5l9.3-1.5l9.3-1.7
						l9.6-2.2l9.1-2.5l9.1-2.2l9.1-2.7l8.8-2.9l8.8-3.2l8.8-3.2l8.6-3.7l8.6-3.7l8.6-3.9l8.1-4.2l8.3-4.4l16-9.1l15.7-10.1l15-10.6
						l14.2-11.5l14-11.8l13.3-12.5l12.8-13.7l12-13.7l11-14.5l11-14.7l9.6-15.5l9.6-16.2l4.2-8.3l3.9-8.1l4.2-8.3l3.7-8.6l3.4-8.8
						l3.7-8.3l2.7-8.8l2.9-9.3l2.7-8.8l2.7-9.1l2-9.3l2.2-9.1l1.7-9.6l1.7-9.3l1.2-9.8l1.2-9.3l0.7-9.8l0.7-9.8l0.2-9.6l0.2-10.1
						l-0.2-10.1l-0.2-9.6l-0.7-9.8l-0.7-9.8l-1.2-9.6l-1.2-9.6l-1.7-9.3l-1.7-9.3l-2.2-9.3l-2-9.3l-2.7-9.1l-2.7-8.8l-2.9-9.1
						l-2.7-8.8l-3.7-8.6l-3.4-8.8l-3.7-8.6l-4.2-8.3l-3.9-8.3l-4.2-8.1l-9.6-16.2l-9.6-15.2l-11-15.2l-11-14.2l-12-14.2l-12.8-13.3
						l-13.3-12.8l-14-12l-14.2-11l-0.2-0.2l104.3-139.4l10.6,8.3l10.3,8.3l10.3,8.6l9.8,8.8l9.8,9.1l9.8,9.3l9.1,9.6l9.1,9.8
						l8.8,9.8l8.8,10.3l8.3,10.3l8.3,10.6l7.6,11l7.6,10.8l7.4,11.3l7.1,11.5l6.9,11.5l6.6,11.8l6.1,12l6.1,12l5.6,12l5.6,12.5
						l4.9,12.5l4.9,12.8l4.7,13l4.2,13l3.7,13l3.9,13.5l3.2,13l2.9,13.7l2.7,13.5l2,13.7l2.2,14l1.2,14l1.5,14.2l1,14.2l0.2,14
						l0.2,14.5l-0.2,14.5l-0.2,14l-1,14.2l-1.5,14.2l-1.2,14l-2.2,14l-2,13.5l-2.7,13.7l-2.9,13.7l-3.2,13.3l-3.9,13.3l-3.7,13.3
						l-4.2,13l-4.7,12.8l-4.9,12.8l-4.9,12.3l-5.6,12.5l-5.6,12l-6.1,12.3l-6.1,12l-6.6,11.8l-6.9,11.5l-7.1,11l-7.4,11.3l-7.6,11.3
						l-7.6,10.8l-8.3,10.6l-8.3,10.3l-8.8,10.3l-8.8,10.1l-9.1,9.8l-9.1,9.3l-9.8,9.3l-9.8,9.3l-9.8,8.8l-10.3,8.3l-10.3,8.6
						l-10.6,8.1l-11,7.9l-10.8,7.6l-11.3,7.4l-11.5,7.1l-11.5,6.9l-11.8,6.6l-11.8,6.4l-12,5.9l-12.3,5.9l-12.5,5.2l-12.5,5.4
						l-12.8,4.7l-13,4.4l-13,4.4l-12.8,3.9l-13.3,3.4l-13.7,3.2l-13.5,2.9L98.7-8.8L84.9-6.4l-14,2l-14,1.5L43-1.7l-14.2,1L14.5-0.2
						L0,0z"/>
				</g>
				<g id="g96" transform="translate(1110.2061,1073.2931)">
					<path id="path98" inkscape:connector-curvature="0" class="st5" d="M0,0l7.7-434.2l-10.3-5.2l-22-15.6l7.4,456.7
						c0.2,9,4.3,15.9,9,15.5C-3.4,16.7,0.2,9,0,0"/>
				</g>
				<g id="g100" transform="translate(1068.2063,1069.8165)">
					<path id="path102" inkscape:connector-curvature="0" class="st5" d="M0,0h56.7c22.8,0,23.8,48.1,0,48.1H0.9
						c0,0-33.2-14.1-33.2-24.1C-32.3,14.1,0,0,0,0"/>
				</g>
				<g id="g104" transform="translate(1047.6713,1087.8849)">
					<path id="path106" inkscape:connector-curvature="0" class="st6" d="M0,0c2.7,3.1,3.4,8.9,1.4,13.3c-2,4.4-5.3,4.5-8.3,2.1
						c0,0-15.6-12.8-22.5-18.6c-6.7-5.6-15.8,0.7-30.7-15.6c-14.9-16.4-91.5-133.2-91.5-133.2c-2-3.7-2.4-8.1-0.4-12.5
						c2-4.4,5.5-5.6,8.1-2.5L0,0z"/>
				</g>
				<g id="g108" transform="translate(1046.8279,1103.9689)">
					<path id="path110" inkscape:connector-curvature="0" class="st6" d="M0,0c-3,2.2-6.5,0.4-7.8-4.5c-1.3-4.9,0.3-9.6,3.1-12.6
						c0,0,14.8-15.6,21.5-22.5c6.4-6.6,10.4-34.5,26.8-47.4c16.4-12.9,115.5-51.2,115.5-51.2c3-1.1,5.6,0.6,6.9,5.5
						c1.3,4.9,0.2,10.4-2.8,12.6L0,0z"/>
				</g>
				<g id="g112" transform="translate(1038.7189,1095.1732)">
					<path id="path114" inkscape:connector-curvature="0" class="st6" d="M0,0c0.4-5.3,3.1-9.3,6.4-8.7c3.3,0.5,5,5,5.1,10.5
						c0,0,0.7,28.4,1,41.1c0.2,12.2,18.9,32,17.4,61.2C28.4,133.4-7.6,290.2-7.6,290.2c-1,4.8-3.2,7.5-6.5,7
						c-3.3-0.5-5.7-4.8-5.3-10.1L0,0z"/>
				</g>
				<g id="g116" transform="translate(1050.566,1108.4756)">
					<path id="path118" inkscape:connector-curvature="0" class="st5" d="M0,0c0,0-22.4-10.2-22.4-16S0-30.4,0-30.4"/>
				</g>
				<g id="g120" transform="translate(567.8154,932.9401)">
					<path id="path122" inkscape:connector-curvature="0" class="st2" d="M0,0c0,0,20.2-321.9,285.7-340.1
						C148.5-238.9,157.8-100.8,157.8-100.8L0,0z"/>
				</g>
			</g>
		</g>
	</g>
	<g id="g124" transform="translate(-251.59929,-196.08547)" inkscape:export-xdpi="18.339914" inkscape:export-ydpi="18.339914">
		<g>
			<defs>
				<path id="SVGID_00000078752407966522222140000011623963906977586850_" d="M576,874.9l43.8-22.4c-0.8,7.9-1.3,16-1.5,24.2l0,0
					c-0.1,8-0.1,15.9,0.6,23.9l0,0L567,933.8C567,933.8,568.5,910,576,874.9 M630.9,876.9c0-10.5,0.4-20.7,1.3-30.7l0,0l29.2-14.9
					c-1.1,10.4-1.6,20.9-1.6,31.3l0,0c0,3.9,0.1,7.6,0.5,11.6l0,0l-28.7,18.3C631.1,887.3,630.9,882.1,630.9,876.9 M672.6,851.2
					c0-8.8,0.5-17.6,1.3-26.3l0,0l19.7-10.1c0,0.2-0.1,0.4-0.1,0.6l0,0c-1.8,13-3,26-2.6,39.2l0,0L673,866
					C672.7,861.1,672.6,856.1,672.6,851.2 M588.7,826.6l38.2-16.9c-2.5,10.5-4.5,21.3-5.9,32.4l0,0l-41.6,18.4
					C581.9,849.9,585,838.5,588.7,826.6 M705.1,816.9c0.3-2.9,0.6-5.7,1-8.5l0,0l21-10.7c-2.9,21.6-2,35.1-2,35.1l0,0l-21.2,13.5
					C703.6,836.5,704.2,826.6,705.1,816.9 M638.8,804.4l29.5-13.1c-2.6,10.7-4.7,21.6-6.1,32.5l0,0l-29.1,12.8
					C634.5,825.6,636.4,814.9,638.8,804.4 M680.2,786.1l21.6-9.5c-3.1,10.8-5.6,21.8-7.4,33.1l0,0l-19.8,8.8
					C675.8,807.5,677.7,796.7,680.2,786.1 M604.4,783.8l34.8-13.2c-3.6,9.3-6.8,18.8-9.6,28.7l0,0l-36.3,13.7
					C596.5,803.4,600.2,793.6,604.4,783.8 M713.5,771.3l20.8-9.2c-3.3,12.1-5.4,23.2-6.8,32.9l0,0l-20.8,9.2
					C708.4,793,710.7,782,713.5,771.3 M650.6,766.2l29.2-11.1c-3.7,9.4-6.9,19.1-9.6,28.8l0,0l-29.1,11
					C643.9,785,647,775.4,650.6,766.2 M691,750.8l23-8.8c-4.1,9.5-7.7,19.3-10.8,29.4l0,0l-21.4,8.1
					C684.4,769.8,687.5,760.2,691,750.8 M623.3,744.7l33.7-11.1c-5,8.7-9.6,17.8-13.7,27.2l0,0l-33.4,10.6
					C613.9,762.5,618.4,753.5,623.3,744.7 M724.9,737.9l20.1-7.7c-4.1,10.2-7.3,20-9.9,29.2l0,0l-20.4,7.7
					C717.6,757.1,721,747.3,724.9,737.9 M668,729.9l28-9.2c-5,8.9-9.5,18.1-13.4,27.6l0,0l-28.3,9C658.4,747.8,663,738.7,668,729.9
					 M706.5,717.3l24-7.9c-5.4,9.1-10.2,18.6-14.6,28.3l0,0l-22.5,7.2C697.2,735.4,701.6,726.2,706.5,717.3 M740.4,706.1l18.7-6.2
					c-5.2,9.6-9.6,19.1-13.3,28.3l0,0l-19.4,6.2C730.5,724.7,735.2,715.3,740.4,706.1 M651,701.8l35.3-9.6
					c-8.1,9.5-15.6,19.5-22.4,30l0,0l-32.6,8.7C637.3,721,643.8,711.2,651,701.8 M696.9,689.3l25.1-6.8c-2.4,3-5.4,6.9-6.3,7.9l0,0
					c-5.3,7-10.3,14.4-14.8,21.9l0,0l-26.5,7C681.2,708.8,688.8,698.8,696.9,689.3 M727.5,685.1c0.9-1.3,2.5-3.1,3.5-4.4l0,0
					c0.2-0.3,0.5-0.6,0.7-0.9l0,0l23.9-6.5c-7.8,9.6-15,19.6-21.5,30.1l0,0l-23.2,6.2C715.9,701.1,721.5,692.9,727.5,685.1
					 M763.9,671.1l15.9-4.3c-7.1,9.9-13.3,19.8-18.7,29.5l0,0l-17.7,4.7C749.5,690.6,756.4,680.6,763.9,671.1 M689.4,659.9l40.4-8.6
					c-12.4,9.4-23.9,19.7-34.4,30.8l0,0l-34.5,7.2C669.6,679,679.1,669.2,689.4,659.9 M739.5,649.2l20.2-4.3
					c-7.5,6.1-14.7,12.6-21.5,19.6l0,0c-3.4,3.2-6.8,7-10,10.7l0,0l-23,4.8C715.7,669,727.2,658.7,739.5,649.2 M741.9,668
					c8.1-8.9,16.8-17.1,26-24.8l0,0l20.8-4.4c-10.5,9.3-20.2,19.3-29.2,29.9l0,0l-22.4,4.7C738.7,671.4,740.4,669.6,741.9,668
					 M794.5,637.5l11.1-2.4c-8.9,9.5-16.9,19.2-23.9,28.8l0,0l-14.7,3.1C775.5,656.7,784.7,646.8,794.5,637.5 M853.2,593
					c-42.2,10.9-80,27.9-112.4,50.3l0,0l-38.6,5.9C740.7,618.9,790,597.4,853.2,593 M853.2,593c-30.6,11.2-60.2,26.5-86.3,46.3l0,0
					l-17.5,2.7C779.4,620.9,814.4,604.4,853.2,593 M853.2,593c-1.5,1.1-3,2.2-4.4,3.3l0,0c-20.4,11.3-39.3,24.4-56.3,39.1l0,0
					l-18.4,2.8C797.9,619.5,824.9,604.6,853.2,593 M848.7,596.4c-15.6,11.9-29.3,24.3-41.2,36.8l0,0l-9.9,1.5
					C813.1,620.5,830.2,607.7,848.7,596.4 M848.7,596.4C848.8,596.3,848.8,596.3,848.7,596.4L848.7,596.4
					C848.8,596.3,848.7,596.4,848.7,596.4L848.7,596.4C848.7,596.4,848.7,596.4,848.7,596.4"/>
			</defs>
			<clipPath id="SVGID_00000072251326856338908470000007005385826690665128_">
				<use xlink:href="#SVGID_00000078752407966522222140000011623963906977586850_"  style="overflow:visible;"/>
			</clipPath>
			<g id="g126" style="clip-path:url(#SVGID_00000072251326856338908470000007005385826690665128_);">
				<g id="g132">
					<g id="g134">

							<linearGradient id="path148_00000060012969691140755170000012484366142187382718_" gradientUnits="userSpaceOnUse" x1="465.891" y1="268.029" x2="466.891" y2="268.029" gradientTransform="matrix(-202.9998 -142.142 -142.142 202.9998 133446.375 12619.9199)">
							<stop  offset="0" style="stop-color:#15304E"/>
							<stop  offset="0.1872" style="stop-color:#15304E"/>
							<stop  offset="0.5168" style="stop-color:#2375A6"/>
							<stop  offset="0.8436" style="stop-color:#15304E"/>
							<stop  offset="1" style="stop-color:#15304E"/>
						</linearGradient>

							<path id="path148" inkscape:connector-curvature="0" style="fill:url(#path148_00000060012969691140755170000012484366142187382718_);" d="
							M576,874.9l43.8-22.4c-0.8,7.9-1.3,16-1.5,24.2l0,0c-0.1,8-0.1,15.9,0.6,23.9l0,0L567,933.8C567,933.8,568.5,910,576,874.9
							 M630.9,876.9c0-10.5,0.4-20.7,1.3-30.7l0,0l29.2-14.9c-1.1,10.4-1.6,20.9-1.6,31.3l0,0c0,3.9,0.1,7.6,0.5,11.6l0,0
							l-28.7,18.3C631.1,887.3,630.9,882.1,630.9,876.9 M672.6,851.2c0-8.8,0.5-17.6,1.3-26.3l0,0l19.7-10.1c0,0.2-0.1,0.4-0.1,0.6
							l0,0c-1.8,13-3,26-2.6,39.2l0,0L673,866C672.7,861.1,672.6,856.1,672.6,851.2 M588.7,826.6l38.2-16.9
							c-2.5,10.5-4.5,21.3-5.9,32.4l0,0l-41.6,18.4C581.9,849.9,585,838.5,588.7,826.6 M705.1,816.9c0.3-2.9,0.6-5.7,1-8.5l0,0
							l21-10.7c-2.9,21.6-2,35.1-2,35.1l0,0l-21.2,13.5C703.6,836.5,704.2,826.6,705.1,816.9 M638.8,804.4l29.5-13.1
							c-2.6,10.7-4.7,21.6-6.1,32.5l0,0l-29.1,12.8C634.5,825.6,636.4,814.9,638.8,804.4 M680.2,786.1l21.6-9.5
							c-3.1,10.8-5.6,21.8-7.4,33.1l0,0l-19.8,8.8C675.8,807.5,677.7,796.7,680.2,786.1 M604.4,783.8l34.8-13.2
							c-3.6,9.3-6.8,18.8-9.6,28.7l0,0l-36.3,13.7C596.5,803.4,600.2,793.6,604.4,783.8 M713.5,771.3l20.8-9.2
							c-3.3,12.1-5.4,23.2-6.8,32.9l0,0l-20.8,9.2C708.4,793,710.7,782,713.5,771.3 M650.6,766.2l29.2-11.1
							c-3.7,9.4-6.9,19.1-9.6,28.8l0,0l-29.1,11C643.9,785,647,775.4,650.6,766.2 M691,750.8l23-8.8c-4.1,9.5-7.7,19.3-10.8,29.4
							l0,0l-21.4,8.1C684.4,769.8,687.5,760.2,691,750.8 M623.3,744.7l33.7-11.1c-5,8.7-9.6,17.8-13.7,27.2l0,0l-33.4,10.6
							C613.9,762.5,618.4,753.5,623.3,744.7 M724.9,737.9l20.1-7.7c-4.1,10.2-7.3,20-9.9,29.2l0,0l-20.4,7.7
							C717.6,757.1,721,747.3,724.9,737.9 M668,729.9l28-9.2c-5,8.9-9.5,18.1-13.4,27.6l0,0l-28.3,9
							C658.4,747.8,663,738.7,668,729.9 M706.5,717.3l24-7.9c-5.4,9.1-10.2,18.6-14.6,28.3l0,0l-22.5,7.2
							C697.2,735.4,701.6,726.2,706.5,717.3 M740.4,706.1l18.7-6.2c-5.2,9.6-9.6,19.1-13.3,28.3l0,0l-19.4,6.2
							C730.5,724.7,735.2,715.3,740.4,706.1 M651,701.8l35.3-9.6c-8.1,9.5-15.6,19.5-22.4,30l0,0l-32.6,8.7
							C637.3,721,643.8,711.2,651,701.8 M696.9,689.3l25.1-6.8c-2.4,3-5.4,6.9-6.3,7.9l0,0c-5.3,7-10.3,14.4-14.8,21.9l0,0l-26.5,7
							C681.2,708.8,688.8,698.8,696.9,689.3 M727.5,685.1c0.9-1.3,2.5-3.1,3.5-4.4l0,0c0.2-0.3,0.5-0.6,0.7-0.9l0,0l23.9-6.5
							c-7.8,9.6-15,19.6-21.5,30.1l0,0l-23.2,6.2C715.9,701.1,721.5,692.9,727.5,685.1 M763.9,671.1l15.9-4.3
							c-7.1,9.9-13.3,19.8-18.7,29.5l0,0l-17.7,4.7C749.5,690.6,756.4,680.6,763.9,671.1 M689.4,659.9l40.4-8.6
							c-12.4,9.4-23.9,19.7-34.4,30.8l0,0l-34.5,7.2C669.6,679,679.1,669.2,689.4,659.9 M739.5,649.2l20.2-4.3
							c-7.5,6.1-14.7,12.6-21.5,19.6l0,0c-3.4,3.2-6.8,7-10,10.7l0,0l-23,4.8C715.7,669,727.2,658.7,739.5,649.2 M741.9,668
							c8.1-8.9,16.8-17.1,26-24.8l0,0l20.8-4.4c-10.5,9.3-20.2,19.3-29.2,29.9l0,0l-22.4,4.7C738.7,671.4,740.4,669.6,741.9,668
							 M794.5,637.5l11.1-2.4c-8.9,9.5-16.9,19.2-23.9,28.8l0,0l-14.7,3.1C775.5,656.7,784.7,646.8,794.5,637.5 M853.2,593
							c-42.2,10.9-80,27.9-112.4,50.3l0,0l-38.6,5.9C740.7,618.9,790,597.4,853.2,593 M853.2,593c-30.6,11.2-60.2,26.5-86.3,46.3
							l0,0l-17.5,2.7C779.4,620.9,814.4,604.4,853.2,593 M853.2,593c-1.5,1.1-3,2.2-4.4,3.3l0,0c-20.4,11.3-39.3,24.4-56.3,39.1l0,0
							l-18.4,2.8C797.9,619.5,824.9,604.6,853.2,593 M848.7,596.4c-15.6,11.9-29.3,24.3-41.2,36.8l0,0l-9.9,1.5
							C813.1,620.5,830.2,607.7,848.7,596.4 M848.7,596.4C848.8,596.3,848.8,596.3,848.7,596.4L848.7,596.4
							C848.8,596.3,848.7,596.4,848.7,596.4L848.7,596.4C848.7,596.4,848.7,596.4,848.7,596.4"/>
					</g>
				</g>
			</g>
		</g>
	</g>
	<g class="st9">
		<path d="M156.8,130.3h-51.2V98h60.5V73H73.1V208h93.2v-25.1h-60.7v-28.5h51.2V130.3z"/>
	</g>
	<g class="st9">
		<path d="M207.6,173.3l1-11.8c7.1,9.1,16.7,13.6,28.7,13.6c12.7,0,21.2-5,25.7-15.1c6.8,10.1,16.6,15.1,29.5,15.1
			c20.3,0,30.8-12.3,31.4-36.9V73h-31.4v63.4c0,5.1-0.9,8.9-2.6,11.2c-1.7,2.3-4.9,3.5-9.5,3.5c-6.2,0-10.8-2.8-13.8-8.3l0.1-1.3V73
			h-31.4v63.2c0,5.3-0.8,9.1-2.5,11.4c-1.7,2.3-4.9,3.5-9.6,3.5c-6,0-10.6-2.8-13.7-8.3V73h-31.3v100.4H207.6z"/>
	</g>
	<g class="st9">
		<path d="M375.6,118.8V73H343V208h53.9c10.3,0,19.5-1.9,27.4-5.7c7.9-3.8,14.1-9.2,18.5-16.2c4.4-7,6.5-15,6.5-23.9
			c0-13.2-4.7-23.7-14.1-31.6c-9.4-7.9-22.4-11.8-38.8-11.8H375.6z M375.6,143.9h21.3c6.3,0,11.1,1.6,14.4,4.7c3.3,3.2,5,7.6,5,13.4
			c0,6.3-1.7,11.3-5.1,15.1c-3.4,3.8-8,5.7-13.9,5.8h-21.7V143.9z"/>
	</g>
	<g class="st9">
		<path d="M460.1,124.1c0,10,1.9,18.9,5.8,26.8c3.9,7.8,9.5,13.8,16.8,18c7.3,4.2,15.9,6.3,25.7,6.3c15,0,26.9-4.7,35.5-14
			c8.7-9.3,13-22,13-38v-1.1c0-15.6-4.3-28.1-13-37.2c-8.7-9.2-20.5-13.8-35.3-13.8c-14.3,0-25.8,4.3-34.4,12.8
			c-8.7,8.6-13.3,20.2-14,34.8L460.1,124.1z M491.4,122.1c0-9.3,1.5-16.1,4.4-20.4c2.9-4.3,7.2-6.5,12.9-6.5
			c11.1,0,16.8,8.6,17.1,25.7v3.2c0,18-5.8,27-17.3,27c-10.5,0-16.1-7.8-17-23.3L491.4,122.1z"/>
	</g>
	<g class="st9">
		<path d="M657.5,114.2l10.1,59.2h30L673.9,73h-26.4l-16.6,59.6L614.2,73h-26.4l-23.7,100.4h30l9.9-60.6l16,60.6h21.8L657.5,114.2z"
			/>
	</g>
	<g class="st9">
		<path d="M757.3,71.1c-15.4,0-27.9,4.6-37.4,13.8c-9.5,9.2-14.3,21.1-14.3,35.9v2.6c0,10.3,1.9,19.3,5.7,27.2
			c3.8,7.9,9.4,13.9,16.7,18.2c7.3,4.3,16,6.4,26,6.4c14.1,0,25.2-4.4,33.4-13.1c8.2-8.8,12.2-21,12.2-36.6v-12.2h-62.2
			c1.1-5.6,3.6-10.1,7.3-13.3c3.8-3.2,8.7-4.8,14.7-4.8c9.9,0,17.6,3.5,23.2,10.4l14.3-16.9c-3.9-5.4-9.4-9.7-16.6-12.8
			C773.2,72.7,765.6,71.1,757.3,71.1z M753.8,151.1c-9.2,0-14.6-6.1-16.3-18.2H769v2.4c0.1,5-1.1,8.9-3.8,11.6
			C762.6,149.7,758.8,151.1,753.8,151.1z"/>
	</g>
	<g class="st9">
		<path d="M872.8,145l-10.3,0.7c-9.8,0-16.1-3.1-18.9-9.3V73h-31.3v100.4h29.3l1-12.9c5.3,9.8,12.6,14.8,22,14.8
			c3.3,0,6.2-0.4,8.7-1.1L872.8,145z"/>
	</g>
	<g class="st9">
		<path d="M918.1,118.8V73h-32.6V208h53.9c10.3,0,19.5-1.9,27.4-5.7c7.9-3.8,14.1-9.2,18.5-16.2c4.4-7,6.5-15,6.5-23.9
			c0-13.2-4.7-23.7-14.1-31.6c-9.4-7.9-22.4-11.8-38.8-11.8H918.1z M918.1,143.9h21.3c6.3,0,11.1,1.6,14.4,4.7c3.3,3.2,5,7.6,5,13.4
			c0,6.3-1.7,11.3-5.1,15.1c-3.4,3.8-8,5.7-13.9,5.8h-21.7V143.9z"/>
	</g>
	<g class="st9">
		<path d="M1040.8,73h-31.4v142.5h31.4V73z"/>
	</g>
	<g class="st9">
		<path d="M1116.6,73c-1.1,2-2.1,5-3,9c-5.8-7.2-13.8-10.9-24.1-10.9c-9.5,0-17.5,2.9-24.1,8.6c-6.6,5.7-9.9,12.9-9.9,21.6
			c0,10.9,4,19.1,12.1,24.7c8,5.6,19.7,8.3,35.1,8.3h9.6v5.3c0,9.3-4,13.9-12,13.9c-7.4,0-11.1-3.7-11.1-11h-31.3
			c0,9.7,4.1,17.6,12.4,23.6c8.3,6.1,18.8,9.1,31.6,9.1s22.9-3.1,30.3-9.4c7.4-6.2,11.2-14.8,11.4-25.7V95.7
			c0.1-9.2,1.5-16.3,4.3-21.2V73H1116.6z M1097,93.4c3.9,0,7.1,0.8,9.7,2.5c2.6,1.7,4.4,3.6,5.5,5.7v16.1h-9.1
			c-10.9,0-16.3-4.9-16.3-14.7c0-2.8,1-5.1,2.9-6.9C1091.6,94.3,1094.1,93.4,1097,93.4z"/>
	</g>
	<g class="st9">
		<path d="M1189.7,173.3l1-11.8c6.9,9.1,16.5,13.6,28.7,13.6c10.5,0,18.3-3.1,23.4-9.4c5.2-6.2,7.8-15.6,8-28.2V73h-31.4v63.4
			c0,5.1-1,8.8-3.1,11.2c-2,2.4-5.8,3.6-11.1,3.6c-6.1,0-10.7-2.4-13.6-7.2V73h-31.3v100.4H1189.7z"/>
	</g>
	<g id="g158" transform="translate(-251.59929,-196.08547)" inkscape:export-xdpi="18.339914" inkscape:export-ydpi="18.339914">
		<g>
			<defs>
				<rect id="SVGID_00000054951598133212840430000014238598347666315432_" x="-300.9" y="-259.5" width="2407.6" height="2075.7"/>
			</defs>
			<clipPath id="SVGID_00000029740163191780767880000007299737831514125466_">
				<use xlink:href="#SVGID_00000054951598133212840430000014238598347666315432_"  style="overflow:visible;"/>
			</clipPath>
			<g id="g160" style="clip-path:url(#SVGID_00000029740163191780767880000007299737831514125466_);">
				<g id="g166" transform="translate(1127.3436,922.879)">
					<path id="path168" inkscape:connector-curvature="0" class="st11" d="M0,0c0,0,2.8-233.9-274.2-329.9
						c0,0,192.6-89.7,338.5,266.6L0,0z"/>
				</g>
				<g id="g170" transform="translate(1147.2927,902.2421)">
					<path id="path172" inkscape:connector-curvature="0" class="st12" d="M0,0c0,0-8-270.6-294.1-309.3
						c264.8-76.9,366.9,159.6,376,230.6L0,0z"/>
				</g>
			</g>
		</g>
	</g>
</g>
</svg>
