<?xml version="1.0" encoding="UTF-8" standalone="no"?>
<svg
   xmlns:dc="http://purl.org/dc/elements/1.1/"
   xmlns:cc="http://creativecommons.org/ns#"
   xmlns:rdf="http://www.w3.org/1999/02/22-rdf-syntax-ns#"
   xmlns:svg="http://www.w3.org/2000/svg"
   xmlns="http://www.w3.org/2000/svg"
   id="svg48"
   xml:space="preserve"
   enable-background="new 0 0 100 100"
   viewBox="0 0 100 100"
   y="0px"
   x="0px"
   version="1.1"
   fill="#000000"
   width="100px"
   height="100px"><metadata
     id="metadata54"><rdf:RDF><cc:Work
         rdf:about=""><dc:format>image/svg+xml</dc:format><dc:type
           rdf:resource="http://purl.org/dc/dcmitype/StillImage" /><dc:title></dc:title></cc:Work></rdf:RDF></metadata><defs
     id="defs52" /><g
     style="stroke:#ffffff;stroke-opacity:1;stroke-width:1.2;stroke-miterlimit:4;stroke-dasharray:none;fill:#fdfdfd;fill-opacity:1"
     id="g46"><g
       style="stroke:#ffffff;stroke-opacity:1;stroke-width:1.2;stroke-miterlimit:4;stroke-dasharray:none;fill:#fdfdfd;fill-opacity:1"
       id="g4"><path
         style="stroke:#ffffff;stroke-opacity:1;stroke-width:1.2;stroke-miterlimit:4;stroke-dasharray:none;fill:#fdfdfd;fill-opacity:1"
         id="path2"
         fill="#000000"
         d="    M40.236,81.094"
         stroke-miterlimit="10"
         stroke-linejoin="round"
         stroke-linecap="round"
         stroke-width="3"
         stroke="#000000" /></g><g
       style="stroke:#ffffff;stroke-opacity:1;stroke-width:1.2;stroke-miterlimit:4;stroke-dasharray:none;fill:#fdfdfd;fill-opacity:1"
       id="g8"><path
         style="stroke:#ffffff;stroke-opacity:1;stroke-width:1.2;stroke-miterlimit:4;stroke-dasharray:none;fill:#fdfdfd;fill-opacity:1"
         id="path6"
         fill="#000000"
         d="    M24.479,74.495"
         stroke-miterlimit="10"
         stroke-linejoin="round"
         stroke-linecap="round"
         stroke-width="3"
         stroke="#000000" /></g><g
       style="stroke:#ffffff;stroke-opacity:1;stroke-width:1.2;stroke-miterlimit:4;stroke-dasharray:none;fill:#fdfdfd;fill-opacity:1"
       id="g12"><path
         style="stroke:#ffffff;stroke-opacity:1;stroke-width:1.2;stroke-miterlimit:4;stroke-dasharray:none;fill:#fdfdfd;fill-opacity:1"
         id="path10"
         d="M71.417,25.778c-0.605,0.084-1.237-0.124-1.673-0.612c-1.408-1.565-2.965-2.996-4.625-4.251    c-10.545-7.973-24.759-8.832-36.208-2.196c-0.904,0.526-2.067,0.219-2.592-0.686c-0.527-0.903-0.219-2.063,0.686-2.588    c12.775-7.407,28.64-6.447,40.409,2.45c1.855,1.402,3.588,2.996,5.157,4.742c0.699,0.779,0.633,1.975-0.148,2.674    C72.13,25.575,71.778,25.729,71.417,25.778z" /></g><g
       style="stroke:#ffffff;stroke-opacity:1;stroke-width:1.2;stroke-miterlimit:4;stroke-dasharray:none;fill:#fdfdfd;fill-opacity:1"
       id="g16"><path
         style="stroke:#ffffff;stroke-opacity:1;stroke-width:1.2;stroke-miterlimit:4;stroke-dasharray:none;fill:#fdfdfd;fill-opacity:1"
         id="path14"
         d="M50.315,83.018c-3.391,0.468-6.875,0.464-10.359-0.049c-1.037-0.154-1.752-1.117-1.6-2.152    c0.157-1.035,1.12-1.748,2.159-1.597c11.843,1.746,23.682-3.074,30.902-12.581c3.471-4.566,5.679-9.98,6.39-15.655    c0.128-1.038,1.076-1.777,2.12-1.647c1.041,0.129,1.777,1.075,1.65,2.114c-0.793,6.335-3.263,12.378-7.132,17.474    C68.506,76.737,59.779,81.715,50.315,83.018z" /></g><g
       style="stroke:#ffffff;stroke-opacity:1;stroke-width:1.2;stroke-miterlimit:4;stroke-dasharray:none;fill:#fdfdfd;fill-opacity:1"
       id="g20"><path
         style="stroke:#ffffff;stroke-opacity:1;stroke-width:1.2;stroke-miterlimit:4;stroke-dasharray:none;fill:#fdfdfd;fill-opacity:1"
         id="path18"
         d="M23.334,76.005c-0.028-0.017-0.089-0.07-0.114-0.089C10.46,66.278,5.497,49.028,11.218,34.021    c0.373-0.977,1.465-1.471,2.449-1.098c0.983,0.371,1.472,1.464,1.099,2.442c-5.121,13.444-0.674,28.9,10.815,37.587L23.334,76.005    z" /></g><g
       style="stroke:#ffffff;stroke-opacity:1;stroke-width:1.2;stroke-miterlimit:4;stroke-dasharray:none;fill:#fdfdfd;fill-opacity:1"
       id="g24"><path
         style="stroke:#ffffff;stroke-opacity:1;stroke-width:1.2;stroke-miterlimit:4;stroke-dasharray:none;fill:#fdfdfd;fill-opacity:1"
         id="path22"
         d="M20.561,37.914c-2.852,0.393-5.834-0.096-8.488-1.563c-0.917-0.507-1.251-1.659-0.741-2.575    c0.508-0.914,1.665-1.245,2.579-0.74c4.284,2.366,9.737,1.214,12.694-2.674c2.727-3.593,2.672-8.568-0.136-12.103    c-0.648-0.819-0.51-2.01,0.314-2.66c0.819-0.648,2.013-0.51,2.667,0.307c3.88,4.89,3.956,11.774,0.18,16.742    C27.373,35.615,24.063,37.432,20.561,37.914z" /></g><g
       style="stroke:#ffffff;stroke-opacity:1;stroke-width:1.2;stroke-miterlimit:4;stroke-dasharray:none;fill:#fdfdfd;fill-opacity:1"
       id="g28"><path
         style="stroke:#ffffff;stroke-opacity:1;stroke-width:1.2;stroke-miterlimit:4;stroke-dasharray:none;fill:#fdfdfd;fill-opacity:1"
         id="path26"
         d="M13.248,36.571c-0.39,0.053-0.805-0.014-1.175-0.22c-0.646-0.359-1.171-0.695-1.653-1.06    C4.396,30.74,3.213,22.146,7.78,16.135c4.568-6.012,13.183-7.2,19.208-2.647c0.897,0.677,1.721,1.49,2.461,2.418    c0.65,0.819,0.51,2.009-0.313,2.66c-0.821,0.65-2.015,0.511-2.668-0.309c-0.536-0.677-1.134-1.268-1.773-1.751    c-4.355-3.292-10.587-2.432-13.892,1.915c-3.301,4.347-2.445,10.56,1.91,13.854c0.336,0.25,0.717,0.495,1.198,0.76    c0.921,0.508,1.251,1.661,0.742,2.577C14.349,36.155,13.822,36.491,13.248,36.571z" /></g><g
       style="stroke:#ffffff;stroke-opacity:1;stroke-width:1.2;stroke-miterlimit:4;stroke-dasharray:none;fill:#fdfdfd;fill-opacity:1"
       id="g32"><path
         style="stroke:#ffffff;stroke-opacity:1;stroke-width:1.2;stroke-miterlimit:4;stroke-dasharray:none;fill:#fdfdfd;fill-opacity:1"
         id="path30"
         d="M80.674,53.01c-0.274,0.038-0.542,0.068-0.817,0.093c-1.045,0.093-1.968-0.679-2.058-1.721    c-0.09-1.042,0.683-1.969,1.727-2.051c3.602-0.319,6.918-2.136,9.083-4.991c4.264-5.61,3.159-13.629-2.463-17.878    c-4.08-3.084-9.595-3.443-14.05-0.916c-0.914,0.518-2.072,0.201-2.588-0.707c-0.515-0.91-0.199-2.066,0.711-2.583    c5.78-3.279,12.931-2.811,18.224,1.189c7.286,5.506,8.719,15.907,3.194,23.18C88.982,50.116,85.023,52.411,80.674,53.01z" /></g><g
       style="stroke:#ffffff;stroke-opacity:1;stroke-width:1.2;stroke-miterlimit:4;stroke-dasharray:none;fill:#fdfdfd;fill-opacity:1"
       id="g36"><path
         style="stroke:#ffffff;stroke-opacity:1;stroke-width:1.2;stroke-miterlimit:4;stroke-dasharray:none;fill:#fdfdfd;fill-opacity:1"
         id="path34"
         d="M79.926,52.927c-0.031,0.004-0.062,0.008-0.091,0.013c-4.093,0.563-8.18-0.721-11.452-3.194    c-7.288-5.51-8.713-15.87-3.188-23.14c1.367-1.8,3.06-3.255,5.02-4.37c0.915-0.519,2.072-0.191,2.589,0.719    c0.52,0.908,0.202,2.07-0.71,2.587c-1.514,0.86-2.812,2-3.868,3.386c-4.258,5.608-3.153,13.629,2.464,17.878    c2.518,1.905,5.657,2.802,8.835,2.522c1.044-0.091,1.951,0.597,2.041,1.639C81.66,51.978,80.923,52.79,79.926,52.927z" /></g><g
       style="stroke:#ffffff;stroke-opacity:1;stroke-width:1.2;stroke-miterlimit:4;stroke-dasharray:none;fill:#fdfdfd;fill-opacity:1"
       id="g40"><path
         style="stroke:#ffffff;stroke-opacity:1;stroke-width:1.2;stroke-miterlimit:4;stroke-dasharray:none;fill:#fdfdfd;fill-opacity:1"
         id="path38"
         d="M40.494,82.971c-0.237,0.033-0.479,0.022-0.721-0.041c-1.016-0.254-1.635-1.281-1.38-2.297    c0.663-2.623-0.308-5.371-2.465-7.002c-1.437-1.086-3.211-1.548-4.998-1.302c-1.785,0.247-3.367,1.169-4.457,2.604    c-0.135,0.18-0.259,0.363-0.373,0.552c-0.55,0.888-1.72,1.172-2.611,0.625c-0.897-0.545-1.175-1.71-0.625-2.604    c0.178-0.293,0.373-0.581,0.589-0.862c1.701-2.238,4.172-3.682,6.961-4.067c2.794-0.384,5.565,0.336,7.806,2.035    c3.374,2.549,4.888,6.846,3.855,10.943C41.883,82.326,41.237,82.868,40.494,82.971z" /></g><g
       style="stroke:#ffffff;stroke-opacity:1;stroke-width:1.2;stroke-miterlimit:4;stroke-dasharray:none;fill:#fdfdfd;fill-opacity:1"
       id="g44"><path
         style="stroke:#ffffff;stroke-opacity:1;stroke-width:1.2;stroke-miterlimit:4;stroke-dasharray:none;fill:#fdfdfd;fill-opacity:1"
         id="path42"
         d="M33.284,89.411c-2.674,0.368-5.487-0.278-7.805-2.03c-4.343-3.281-5.468-9.246-2.615-13.875    c0.546-0.891,1.714-1.172,2.611-0.624c0.89,0.547,1.171,1.712,0.622,2.603c-1.823,2.96-1.101,6.776,1.675,8.878    c2.965,2.238,7.205,1.654,9.454-1.302c0.552-0.728,0.947-1.546,1.167-2.427c0.255-1.016,1.287-1.633,2.305-1.376    c1.017,0.254,1.635,1.284,1.376,2.299c-0.346,1.379-0.959,2.653-1.825,3.79C38.494,87.658,35.958,89.042,33.284,89.411z" /></g></g></svg>